<?xml version="1.0" encoding="UTF-8" standalone="no"?>
<!DOCTYPE svg PUBLIC "-//W3C//DTD SVG 1.1//EN" "http://www.w3.org/Graphics/SVG/1.1/DTD/svg11.dtd">
<svg width="500px" height="375px" version="1.1" xmlns="http://www.w3.org/2000/svg" xmlns:xlink="http://www.w3.org/1999/xlink" xml:space="preserve" xmlns:serif="http://www.serif.com/" style="fill-rule:evenodd;clip-rule:evenodd;stroke-linejoin:round;stroke-miterlimit:1.41421;">
    <path d="M21.952,254.308l0,22.511l10.648,0c5.924,0 13.276,-2.564 13.276,-11.301c0,-8.085 -6.215,-11.21 -13.276,-11.21l-10.648,0Zm-20.708,-16.954l29.339,0c25.532,0 35.266,12.177 35.266,28.426c0,13.317 -7.144,27.872 -35.463,27.872l-8.396,0l0,28.751l-20.746,0l0,-85.049Z" style="fill:rgb(0,85,164);"/>
    <path d="M155.055,254.267l0,22.513l10.678,0c5.909,0 13.261,-2.604 13.261,-11.341c0,-8.047 -6.227,-11.172 -13.261,-11.172l-10.678,0Zm-20.69,-16.954l29.339,0c25.541,0 35.263,12.18 35.263,28.437c0,13.306 -7.167,27.864 -35.466,27.864l-8.393,0l0,28.751l-20.743,0l0,-85.052Z" style="fill:rgb(0,85,164);"/>
    <path d="M87.013,254.491l-17.727,0l0,-17.137l55.759,0l0,17.137l-17.718,0l0,67.912l-20.314,0l0,-67.912Z" style="fill:rgb(0,85,164);"/>
    <path d="M273.827,293.049l21.475,0c-4.092,17.345 -23.886,31.277 -43.586,31.277c-22.272,0 -47.007,-17.004 -47.007,-44.929c0,-29.119 25.9,-43.936 46.184,-43.936c22.293,0 38.638,11.324 44.409,31.533l-21.475,0c-5.165,-9.784 -11.724,-13.932 -21.831,-13.932c-17.58,0 -26.579,12.718 -26.579,26.112c0,13.875 9.166,27.299 27.308,27.299c9.199,0 15.854,-3.778 21.102,-13.424Z" style="fill:rgb(0,85,164);"/>
    <path d="M205.27,359.971c0,-3.401 0.979,-5.994 2.878,-7.916c1.935,-1.882 4.631,-2.852 8.085,-2.852c3.528,0 6.238,0.944 8.161,2.828c1.925,1.82 2.863,4.445 2.863,7.811c0,2.417 -0.403,4.392 -1.24,5.936c-0.824,1.546 -2.055,2.734 -3.614,3.633c-1.605,0.853 -3.554,1.297 -5.894,1.297c-2.408,0 -4.383,-0.391 -5.968,-1.097c-1.57,-0.732 -2.822,-1.964 -3.819,-3.545c-0.955,-1.673 -1.452,-3.663 -1.452,-6.095Zm5.665,0.024c0,2.775 2.343,6.188 5.336,6.188c3.322,0 5.221,-3.507 5.221,-6.461c0,-2.734 -1.652,-5.416 -5.336,-5.416c-3.31,0 -5.221,2.996 -5.221,5.689Z" style="fill:rgb(0,85,164);"/>
    <path d="M368.513,359.971c0,-3.401 0.97,-5.994 2.851,-7.916c1.949,-1.882 4.645,-2.852 8.085,-2.852c3.519,0 6.253,0.944 8.178,2.828c1.867,1.82 2.861,4.445 2.861,7.811c0,2.417 -0.444,4.392 -1.247,5.936c-0.861,1.546 -2.052,2.734 -3.619,3.633c-1.608,0.853 -3.545,1.297 -5.885,1.297c-2.393,0 -4.398,-0.391 -5.977,-1.097c-1.57,-0.732 -2.828,-1.964 -3.833,-3.545c-0.944,-1.673 -1.414,-3.663 -1.414,-6.095Zm5.662,0.024c0,2.775 2.331,6.188 5.312,6.188c3.296,0 5.209,-3.507 5.209,-6.461c0,-2.734 -1.611,-5.416 -5.3,-5.416c-3.322,0 -5.221,2.996 -5.221,5.689Z" style="fill:rgb(0,85,164);"/>
    <path d="M195.88,349.703l0,20.534l-5.612,0l0.047,-12.412l-7.843,12.412l-5.833,0l0,-20.534l5.574,0l0,12.438l8.102,-12.438l5.565,0Z" style="fill:rgb(0,85,164);"/>
    <path d="M468.093,349.703l0,20.534l-5.612,0l0.053,-12.412l-7.849,12.412l-5.836,0l0,-20.534l5.577,0l0,12.438l8.108,-12.438l5.559,0Z" style="fill:rgb(0,85,164);"/>
    <path d="M497.574,349.764l0,20.553l-5.606,0l0.041,-12.427l-7.826,12.427l-5.809,0l0,-20.553l5.541,0l0,12.403l8.094,-12.403l5.565,0Z" style="fill:rgb(0,85,164);"/>
    <path d="M168.302,374.553l-5.098,0l0,-4.316l-11.915,0l0,4.316l-4.765,0l0,-9.322c2.76,0 4.06,-2.211 4.06,-5.236l0,-10.292l15.196,0l0,15.528l2.522,0l0,9.322Zm-8.355,-9.322l0,-10.481l-4.054,0l0,0.265c0,7.755 0,8.737 -2.131,10.216l6.185,0Z" style="fill:rgb(0,85,164);"/>
    <path d="M132.848,366.851l-6.95,0l-0.982,3.386l-6.235,0l7.429,-20.534l6.667,0l7.406,20.534l-6.371,0l-0.964,-3.386Zm-1.285,-4.422l-2.187,-7.364l-2.193,7.364l4.38,0Z" style="fill:rgb(0,85,164);"/>
    <path d="M63.259,370.237l-5.838,0l0,-15.434l-4.054,0c0,3.087 0.317,7.653 0,10.387c-0.615,6.082 -8.488,5.43 -9.858,5.047l0,-5.047c2.155,1.308 3.987,-0.08 4.054,-1.532l0,-13.955l15.696,0l0,20.534Z" style="fill:rgb(0,85,164);"/>
    <path d="M23.533,349.703l12.386,0l0,5.1l-6.606,0l0,2.772l5.847,0l0,4.566l-5.847,0l0,3.049l6.606,0l0,5.047l-12.386,0l0,-20.534Z" style="fill:rgb(0,85,164);"/>
    <path d="M73.381,349.703l12.403,0l0,5.1l-6.57,0l0,2.772l5.812,0l0,4.566l-5.812,0l0,3.049l6.57,0l0,5.047l-12.403,0l0,-20.534Z" style="fill:rgb(0,85,164);"/>
    <path d="M260.927,349.703l12.4,0l0,5.1l-6.6,0l0,2.772l5.856,0l0,4.566l-5.856,0l0,3.049l6.6,0l0,5.047l-12.4,0l0,-20.534Z" style="fill:rgb(0,85,164);"/>
    <path d="M0,349.703l14.652,0l0,5.1l-4.277,0l0,15.434l-5.862,0l0,-15.434l-4.513,0l0,-5.1Z" style="fill:rgb(0,85,164);"/>
    <path d="M281.462,349.703l14.663,0l0,5.1l-4.289,0l0,15.434l-5.844,0l0,-15.434l-4.53,0l0,-5.1Z" style="fill:rgb(0,85,164);"/>
    <path d="M100.98,354.283l0,4.589l2.172,0c0.918,0 2.523,-0.432 2.523,-2.343c0,-1.514 -1.355,-2.246 -2.523,-2.246l-2.172,0Zm-5.821,-4.58l7.444,0c6.511,0 9.001,2.969 9.001,6.867c0,3.216 -1.293,6.815 -8.504,6.815l-2.12,0l0,6.852l-5.821,0l0,-20.534Z" style="fill:rgb(0,85,164);"/>
    <path d="M350.045,354.283l0,4.589l2.134,0c0.911,0 2.549,-0.432 2.549,-2.343c0,-1.514 -1.358,-2.246 -2.549,-2.246l-2.134,0Zm-5.848,-4.58l7.453,0c6.544,0 9.016,2.969 9.016,6.867c0,3.216 -1.32,6.815 -8.519,6.815l-2.102,0l0,6.852l-5.848,0l0,-20.534Z" style="fill:rgb(0,85,164);"/>
    <path d="M310.542,365.698l0,-4.565l2.158,0c0.9,0 2.552,0.408 2.552,2.34c0,1.508 -1.349,2.225 -2.552,2.225l-2.158,0Zm-5.835,4.539l7.47,0c6.512,0 8.999,-2.942 8.999,-6.864c0,-3.166 -1.279,-6.803 -8.491,-6.803l-2.143,0l0,-6.867l-5.835,0l0,20.534Z" style="fill:rgb(0,85,164);"/>
    <path d="M245.181,370.708c-6.15,0 -9.604,-4.475 -9.604,-10.737c0,-6.62 4.63,-10.768 9.604,-10.768c2.22,0 4.613,0.473 6.63,1.52l0,6.029c-1.373,-1.934 -2.89,-2.446 -5.322,-2.446c-2.684,0 -5.035,2.473 -5.035,5.689c0,3.572 2.901,5.956 5.271,5.956c2.469,0 3.671,-1.558 5.086,-2.528l0,6.018c-1.911,0.952 -4.525,1.267 -6.63,1.267Z" style="fill:rgb(0,85,164);"/>
    <path d="M432.948,370.708c-6.083,0 -9.546,-4.475 -9.546,-10.737c0,-6.62 4.598,-10.768 9.569,-10.768c2.255,0 4.631,0.473 6.618,1.52l0,6.029c-1.367,-1.934 -2.875,-2.446 -5.28,-2.446c-2.696,0 -5.024,2.473 -5.024,5.689c0,3.572 2.89,5.956 5.236,5.956c2.454,0 3.701,-1.558 5.068,-2.528l0,6.018c-1.867,0.952 -4.513,1.267 -6.641,1.267Z" style="fill:rgb(0,85,164);"/>
    <path d="M408.353,370.708c-6.079,0 -9.548,-4.475 -9.548,-10.737c0,-6.62 4.595,-10.768 9.589,-10.768c2.226,0 4.619,0.473 6.591,1.52l0,6.018c-1.346,-1.938 -2.863,-2.458 -5.294,-2.458c-2.681,0 -5.013,2.496 -5.013,5.688c0,3.596 2.879,5.98 5.198,5.98c2.514,0 3.763,-1.573 5.109,-2.528l0,6.018c-1.852,0.899 -4.521,1.267 -6.632,1.267Z" style="fill:rgb(0,85,164);"/>
    <path d="M1.335,225.583c22.904,-111.425 100.048,-165.644 178.641,-165.865c208.858,-6.703 197.641,230.195 197.641,230.195c0,0 0.341,15.328 0.197,23.242c39.032,0 99.525,0 118.672,0c50.562,-400.498 -460.788,-402.577 -495.151,-87.572Z" style="fill:white;fill-rule:nonzero;"/>
    <path d="M257.817,0.001l0.742,0.004l0.742,0.005l0.741,0.008l0.742,0.009l0.742,0.012l0.741,0.013l0.741,0.016l0.742,0.018l0.741,0.019l0.741,0.022l0.741,0.024l0.741,0.026l0.74,0.028l0.741,0.03l0.74,0.031l0.741,0.034l0.74,0.036l0.74,0.039l0.739,0.04l0.74,0.042l0.739,0.044l0.74,0.046l0.739,0.049l0.738,0.05l0.739,0.052l0.739,0.055l0.738,0.056l0.738,0.059l0.738,0.06l0.737,0.063l0.737,0.064l0.737,0.067l0.737,0.069l0.737,0.071l0.736,0.072l0.736,0.075l0.736,0.077l0.735,0.079l0.736,0.081l0.735,0.083l0.734,0.085l0.734,0.088l0.734,0.089l0.734,0.091l0.734,0.093l0.733,0.096l0.732,0.097l0.733,0.1l0.732,0.101l0.731,0.104l0.732,0.106l0.731,0.107l0.73,0.11l0.731,0.112l0.729,0.114l0.73,0.116l0.729,0.118l0.729,0.12l0.728,0.122l0.728,0.124l0.727,0.126l0.728,0.129l0.726,0.13l0.726,0.133l0.726,0.134l0.726,0.137l0.724,0.138l0.725,0.141l0.724,0.143l0.723,0.144l0.723,0.147l0.723,0.149l0.722,0.151l0.722,0.153l0.721,0.156l0.72,0.157l0.721,0.159l0.719,0.161l0.719,0.164l0.719,0.165l0.718,0.168l0.717,0.169l0.717,0.172l0.717,0.174l0.716,0.176l0.715,0.178l0.715,0.18l0.714,0.182l0.714,0.184l0.713,0.186l0.712,0.188l0.712,0.191l0.711,0.192l0.711,0.194l0.71,0.197l0.709,0.199l0.709,0.2l0.708,0.203l0.708,0.205l0.707,0.207l0.706,0.209l0.706,0.211l0.705,0.213l0.704,0.216l0.704,0.217l0.703,0.219l0.702,0.222l0.702,0.223l0.7,0.226l0.701,0.228l0.699,0.23l0.699,0.232l0.698,0.234l0.697,0.236l0.697,0.238l0.696,0.24l0.695,0.243l0.695,0.244l0.693,0.246l0.693,0.249l0.693,0.251l0.691,0.253l0.691,0.254l0.689,0.257l0.69,0.259l0.688,0.262l0.687,0.263l0.687,0.265l0.686,0.268l0.685,0.269l0.684,0.272l0.684,0.273l0.682,0.276l0.682,0.278l0.681,0.28l0.68,0.282l0.679,0.284l0.679,0.286l0.677,0.289l0.677,0.29l0.676,0.293l0.675,0.294l0.674,0.297l0.673,0.299l0.672,0.301l0.671,0.303l0.671,0.305l0.669,0.307l0.669,0.31l0.667,0.311l0.667,0.314l0.666,0.315l0.665,0.318l0.664,0.32l0.662,0.322l0.662,0.324l0.661,0.326l0.66,0.328l0.659,0.331l0.658,0.332l0.657,0.335l0.656,0.336l0.655,0.339l0.655,0.341l0.653,0.343l0.652,0.345l0.651,0.347l0.649,0.35l0.649,0.351l0.648,0.354l0.647,0.355l0.646,0.358l0.644,0.36l0.644,0.362l0.643,0.364l0.641,0.366l0.64,0.368l0.64,0.371l0.638,0.372l0.637,0.375l0.636,0.377l0.635,0.379l0.634,0.381l0.632,0.383l0.632,0.385l0.63,0.387l0.629,0.39l0.628,0.392l0.627,0.393l0.626,0.396l0.625,0.398l0.623,0.4l0.622,0.402l0.621,0.405l0.62,0.406l0.619,0.409l0.617,0.41l0.617,0.413l0.615,0.415l0.613,0.417l0.613,0.419l0.611,0.422l0.611,0.423l0.608,0.425l0.608,0.428l0.607,0.43l0.605,0.432l0.604,0.434l0.602,0.436l0.601,0.438l0.601,0.441l0.598,0.442l0.598,0.445l0.596,0.447l0.595,0.449l0.593,0.451l0.593,0.453l0.59,0.456l0.59,0.457l0.588,0.46l0.587,0.461l0.586,0.464l0.584,0.466l0.583,0.468l0.581,0.471l0.58,0.472l0.579,0.475l0.577,0.476l0.576,0.479l0.575,0.481l0.573,0.483l0.572,0.485l0.57,0.488l0.569,0.489l0.568,0.492l0.566,0.494l0.565,0.496l0.563,0.498l0.562,0.5l0.56,0.502l0.559,0.505l0.557,0.506l0.556,0.509l0.555,0.511l0.553,0.513l0.551,0.515l0.55,0.518l0.549,0.519l0.547,0.522l0.545,0.524l0.544,0.526l0.543,0.528l0.541,0.53l0.539,0.532l0.538,0.535l0.536,0.537l0.535,0.538l0.533,0.541l0.532,0.544l0.53,0.545l0.529,0.547l0.527,0.55l0.525,0.552l0.524,0.554l0.522,0.556l0.521,0.558l0.519,0.56l0.517,0.563l0.516,0.564l0.514,0.567l0.512,0.569l0.511,0.571l0.509,0.573l0.508,0.576l0.506,0.577l0.504,0.58l0.503,0.582l0.501,0.584l0.499,0.586l0.498,0.589l0.495,0.59l0.495,0.593l0.492,0.595l0.491,0.597l0.489,0.599l0.487,0.602l0.486,0.603l0.484,0.606l0.482,0.608l0.48,0.61l0.479,0.612l0.477,0.614l0.475,0.617l0.473,0.618l0.472,0.621l0.47,0.623l0.468,0.625l0.466,0.628l0.465,0.629l0.462,0.632l0.461,0.634l0.459,0.636l0.458,0.638l0.455,0.64l0.454,0.643l0.451,0.645l0.45,0.647l0.448,0.649l0.447,0.651l0.444,0.653l0.443,0.656l0.44,0.657l0.439,0.66l0.437,0.663l0.435,0.664l0.433,0.666l0.431,0.669l0.43,0.671l0.427,0.673l0.425,0.675l0.424,0.677l0.422,0.68l0.419,0.681l0.418,0.684l0.416,0.686l0.414,0.688l0.412,0.691l0.41,0.692l0.408,0.695l0.406,0.697l0.404,0.699l0.402,0.702l0.4,0.703l0.398,0.706l0.396,0.708l0.394,0.71l0.392,0.712l0.39,0.715l0.388,0.716l0.386,0.719l0.384,0.721l0.382,0.723l0.38,0.726l0.378,0.727l0.375,0.73l0.374,0.732l0.372,0.734l0.369,0.736l0.368,0.739l0.365,0.74l0.363,0.743l0.361,0.745l0.359,0.748l0.357,0.749l0.355,0.752l0.353,0.754l0.35,0.756l0.349,0.758l0.346,0.761l0.344,0.762l0.342,0.765l0.34,0.767l0.338,0.769l0.335,0.772l0.333,0.773l0.332,0.776l0.329,0.778l0.326,0.78l0.325,0.783l0.322,0.785l0.32,0.786l0.318,0.789l0.316,0.792l0.313,0.793l0.312,0.796l0.309,0.798l0.306,0.8l0.305,0.802l0.302,0.804l0.3,0.807l0.298,0.809l0.295,0.811l0.293,0.813l0.291,0.816l0.289,0.817l0.286,0.82l0.284,0.822l0.282,0.825l0.279,0.826l0.277,0.829l0.275,0.831l0.272,0.833l0.27,0.836l0.268,0.837l0.265,0.84l0.263,0.842l0.261,0.844l0.258,0.847l0.256,0.848l0.253,0.851l0.251,0.853l0.249,0.856l0.246,0.857l0.244,0.86l0.242,0.862l0.239,0.864l0.237,0.866l0.234,0.869l0.232,0.871l0.229,0.873l0.227,0.875l0.225,0.877l0.222,0.88l0.219,0.882l0.217,0.884l0.215,0.887l0.212,0.888l0.21,0.891l0.207,0.893l0.205,0.895l0.202,0.898l0.199,0.899l0.198,0.902l0.194,0.904l0.192,0.907l0.19,0.908l0.187,0.911l0.184,0.913l0.182,0.916l0.18,0.917l0.177,0.92l0.174,0.922l0.172,0.924l0.169,0.926l0.166,0.929l0.164,0.931l0.162,0.933l0.159,0.935l0.156,0.938l0.153,0.94l0.151,0.942l0.149,0.944l0.145,0.947l0.143,0.948l0.141,0.951l0.137,0.954l0.136,0.955l0.132,0.958l0.13,0.96l0.127,0.962l0.124,0.964l0.122,0.967l0.119,0.969l0.117,0.971l0.113,0.973l0.111,0.976l0.109,0.978l0.105,0.98l0.103,0.982l0.1,0.984l0.097,0.987l0.095,0.989l0.092,0.992l0.089,0.993l0.086,0.996l0.084,0.998l0.081,1l0.078,1.003l0.075,1.004l0.073,1.007l0.07,1.01l0.066,1.011l0.065,1.014l0.061,1.016l0.058,1.018l0.056,1.021l0.053,1.022l0.05,1.025l0.047,1.028l0.044,1.029l0.042,1.032l0.039,1.034l0.035,1.036l0.033,1.039l0.03,1.04l0.027,1.043l0.025,1.046l0.021,1.047l0.019,1.05l0.015,1.052l0.013,1.054l0.01,1.057l0.006,1.058l0.004,1.061l0.001,1.064l-0.002,1.065l-0.005,1.068l-0.007,1.07l-0.011,1.072l-0.014,1.075l-0.017,1.077l-0.019,1.079l-0.023,1.081l-0.026,1.084l-0.028,1.086l-0.032,1.088l-0.035,1.091l-0.037,1.092l-0.041,1.095l-0.044,1.097l-0.046,1.1l-0.05,1.102l-0.053,1.104l-0.056,1.106l-0.058,1.108l-0.062,1.111l-0.065,1.113l-0.068,1.116l-0.071,1.117l-0.075,1.12l-0.077,1.122l-0.08,1.125l-0.084,1.126l-0.086,1.129l-0.09,1.132l-0.093,1.133l-0.095,1.136l-0.099,1.138l-0.103,1.14l-0.105,1.143l-0.108,1.145l-0.112,1.147l-0.114,1.149l-0.118,1.152l-0.121,1.154l-0.125,1.156l-0.127,1.159l-0.13,1.161l-0.134,1.163l-0.137,1.165l-0.14,1.168l-0.143,1.17l-0.147,1.172l-118.672,0l0.006,-0.377l0.006,-0.386l0.005,-0.397l0.005,-0.405l0.006,-0.838l0.005,-0.868l0.002,-0.895l0,-0.918l-0.001,-0.936l-0.004,-0.951l-0.005,-0.96l-0.007,-0.967l-0.008,-0.968l-0.009,-0.966l-0.01,-0.96l-0.011,-0.948l-0.012,-0.934l-0.012,-0.915l-0.026,-1.756l-0.027,-1.63l-0.025,-1.471l-0.024,-1.278l-0.02,-1.052l-0.017,-0.792l-0.014,-0.674l0.007,-0.172l0.009,-0.213l0.01,-0.295l0.012,-0.376l0.012,-0.457l0.013,-0.534l0.012,-0.612l0.011,-0.688l0.005,-0.372l0.004,-0.39l0.004,-0.409l0.003,-0.426l0.002,-0.445l0.001,-0.462l0.001,-0.48l-0.001,-0.497l-0.002,-0.514l-0.003,-0.532l-0.004,-0.548l-0.006,-0.565l-0.007,-0.582l-0.009,-0.598l-0.01,-0.614l-0.012,-0.63l-0.014,-0.646l-0.016,-0.661l-0.017,-0.678l-0.02,-0.692l-0.022,-0.708l-0.024,-0.722l-0.026,-0.738l-0.029,-0.752l-0.031,-0.767l-0.033,-0.78l-0.036,-0.795l-0.039,-0.809l-0.042,-0.823l-0.045,-0.836l-0.047,-0.85l-0.051,-0.863l-0.053,-0.876l-0.057,-0.889l-0.06,-0.902l-0.063,-0.915l-0.067,-0.927l-0.071,-0.939l-0.074,-0.951l-0.077,-0.963l-0.082,-0.974l-0.085,-0.987l-0.089,-0.997l-0.047,-0.503l-0.047,-0.506l-0.048,-0.509l-0.049,-0.511l-0.05,-0.514l-0.052,-0.517l-0.052,-0.519l-0.054,-0.522l-0.054,-0.525l-0.056,-0.527l-0.056,-0.53l-0.058,-0.533l-0.059,-0.535l-0.06,-0.537l-0.062,-0.54l-0.062,-0.543l-0.064,-0.545l-0.065,-0.547l-0.066,-0.55l-0.067,-0.552l-0.068,-0.555l-0.07,-0.557l-0.071,-0.559l-0.072,-0.561l-0.073,-0.564l-0.075,-0.566l-0.075,-0.569l-0.078,-0.57l-0.078,-0.573l-0.08,-0.575l-0.081,-0.577l-0.082,-0.579l-0.084,-0.582l-0.085,-0.583l-0.087,-0.586l-0.087,-0.587l-0.09,-0.59l-0.09,-0.591l-0.092,-0.594l-0.093,-0.595l-0.095,-0.598l-0.097,-0.599l-0.097,-0.602l-0.099,-0.603l-0.101,-0.605l-0.102,-0.607l-0.103,-0.609l-0.105,-0.61l-0.107,-0.612l-0.108,-0.614l-0.11,-0.616l-0.111,-0.617l-0.112,-0.62l-0.114,-0.62l-0.116,-0.623l-0.117,-0.624l-0.119,-0.626l-0.121,-0.627l-0.122,-0.629l-0.124,-0.63l-0.125,-0.632l-0.127,-0.633l-0.129,-0.635l-0.13,-0.636l-0.132,-0.638l-0.133,-0.639l-0.136,-0.64l-0.137,-0.642l-0.138,-0.643l-0.141,-0.645l-0.142,-0.646l-0.144,-0.647l-0.145,-0.648l-0.148,-0.649l-0.149,-0.651l-0.151,-0.652l-0.153,-0.653l-0.154,-0.655l-0.157,-0.655l-0.158,-0.656l-0.16,-0.658l-0.162,-0.659l-0.163,-0.659l-0.166,-0.661l-0.167,-0.662l-0.17,-0.662l-0.171,-0.664l-0.173,-0.665l-0.175,-0.665l-0.177,-0.666l-0.179,-0.668l-0.181,-0.668l-0.182,-0.669l-0.185,-0.669l-0.187,-0.671l-0.189,-0.671l-0.19,-0.672l-0.193,-0.673l-0.195,-0.673l-0.197,-0.674l-0.198,-0.675l-0.201,-0.675l-0.203,-0.676l-0.205,-0.677l-0.207,-0.677l-0.209,-0.678l-0.212,-0.678l-0.213,-0.679l-0.216,-0.679l-0.217,-0.679l-0.22,-0.681l-0.222,-0.68l-0.224,-0.681l-0.226,-0.681l-0.229,-0.682l-0.23,-0.682l-0.233,-0.682l-0.235,-0.683l-0.237,-0.682l-0.24,-0.683l-0.242,-0.684l-0.244,-0.683l-0.246,-0.684l-0.249,-0.684l-0.25,-0.684l-0.254,-0.684l-0.255,-0.684l-0.258,-0.684l-0.26,-0.685l-0.262,-0.684l-0.265,-0.684l-0.267,-0.685l-0.27,-0.684l-0.272,-0.684l-0.274,-0.684l-0.277,-0.684l-0.279,-0.684l-0.281,-0.684l-0.284,-0.684l-0.286,-0.683l-0.289,-0.684l-0.292,-0.683l-0.293,-0.682l-0.297,-0.683l-0.298,-0.682l-0.302,-0.682l-0.303,-0.682l-0.307,-0.681l-0.309,-0.681l-0.311,-0.68l-0.314,-0.68l-0.316,-0.68l-0.319,-0.679l-0.322,-0.679l-0.324,-0.678l-0.327,-0.677l-0.33,-0.677l-0.332,-0.677l-0.334,-0.676l-0.338,-0.675l-0.34,-0.675l-0.343,-0.674l-0.345,-0.673l-0.348,-0.673l-0.351,-0.671l-0.353,-0.672l-0.357,-0.67l-0.359,-0.67l-0.361,-0.668l-0.365,-0.668l-0.367,-0.667l-0.37,-0.667l-0.373,-0.665l-0.375,-0.664l-0.379,-0.664l-0.381,-0.662l-0.384,-0.662l-0.387,-0.661l-0.389,-0.659l-0.196,-0.329l-0.197,-0.33l-0.197,-0.328l-0.198,-0.329l-0.199,-0.328l-0.2,-0.328l-0.2,-0.328l-0.201,-0.328l-0.201,-0.327l-0.203,-0.327l-0.203,-0.326l-0.204,-0.327l-0.204,-0.326l-0.206,-0.325l-0.206,-0.326l-0.206,-0.325l-0.208,-0.325l-0.208,-0.324l-0.209,-0.325l-0.21,-0.323l-0.21,-0.324l-0.212,-0.323l-0.212,-0.323l-0.212,-0.323l-0.214,-0.322l-0.214,-0.322l-0.215,-0.322l-0.215,-0.321l-0.217,-0.321l-0.217,-0.321l-0.218,-0.32l-0.219,-0.32l-0.219,-0.32l-0.22,-0.319l-0.221,-0.319l-0.222,-0.318l-0.222,-0.319l-0.224,-0.317l-0.224,-0.318l-0.224,-0.317l-0.226,-0.317l-0.226,-0.316l-0.227,-0.316l-0.228,-0.316l-0.229,-0.315l-0.229,-0.315l-0.23,-0.314l-0.231,-0.314l-0.232,-0.314l-0.232,-0.313l-0.234,-0.313l-0.234,-0.313l-0.234,-0.312l-0.236,-0.312l-0.236,-0.311l-0.238,-0.311l-0.238,-0.31l-0.238,-0.31l-0.24,-0.31l-0.24,-0.309l-0.241,-0.309l-0.242,-0.309l-0.243,-0.308l-0.243,-0.307l-0.245,-0.307l-0.245,-0.307l-0.246,-0.306l-0.246,-0.306l-0.248,-0.305l-0.248,-0.305l-0.249,-0.305l-0.25,-0.304l-0.251,-0.303l-0.251,-0.303l-0.253,-0.303l-0.253,-0.302l-0.254,-0.302l-0.254,-0.301l-0.256,-0.301l-0.256,-0.3l-0.258,-0.3l-0.258,-0.299l-0.258,-0.299l-0.26,-0.298l-0.261,-0.298l-0.261,-0.298l-0.262,-0.296l-0.263,-0.297l-0.264,-0.296l-0.264,-0.295l-0.266,-0.295l-0.266,-0.295l-0.267,-0.293l-0.268,-0.294l-0.269,-0.293l-0.27,-0.292l-0.27,-0.292l-0.271,-0.291l-0.273,-0.291l-0.273,-0.29l-0.273,-0.29l-0.275,-0.289l-0.276,-0.289l-0.276,-0.288l-0.277,-0.288l-0.278,-0.287l-0.279,-0.286l-0.28,-0.286l-0.28,-0.285l-0.282,-0.285l-0.282,-0.285l-0.283,-0.283l-0.285,-0.284l-0.284,-0.282l-0.286,-0.282l-0.287,-0.282l-0.287,-0.281l-0.289,-0.28l-0.289,-0.28l-0.29,-0.279l-0.291,-0.278l-0.292,-0.278l-0.292,-0.278l-0.294,-0.277l-0.294,-0.276l-0.296,-0.275l-0.296,-0.275l-0.297,-0.275l-0.298,-0.274l-0.299,-0.273l-0.3,-0.273l-0.3,-0.272l-0.302,-0.271l-0.302,-0.271l-0.303,-0.27l-0.304,-0.269l-0.306,-0.269l-0.305,-0.269l-0.307,-0.267l-0.308,-0.267l-0.309,-0.267l-0.309,-0.265l-0.31,-0.265l-0.312,-0.265l-0.312,-0.264l-0.313,-0.263l-0.314,-0.262l-0.315,-0.262l-0.316,-0.261l-0.317,-0.261l-0.317,-0.26l-0.319,-0.259l-0.319,-0.258l-0.321,-0.258l-0.321,-0.257l-0.322,-0.257l-0.323,-0.256l-0.324,-0.255l-0.325,-0.254l-0.326,-0.254l-0.327,-0.253l-0.327,-0.252l-0.329,-0.252l-0.33,-0.251l-0.33,-0.25l-0.331,-0.25l-0.333,-0.249l-0.333,-0.248l-0.334,-0.247l-0.335,-0.247l-0.336,-0.246l-0.337,-0.245l-0.338,-0.245l-0.339,-0.244l-0.34,-0.243l-0.341,-0.242l-0.341,-0.242l-0.343,-0.241l-0.344,-0.24l-0.344,-0.239l-0.346,-0.239l-0.346,-0.238l-0.347,-0.237l-0.349,-0.237l-0.349,-0.235l-0.35,-0.235l-0.351,-0.234l-0.352,-0.234l-0.353,-0.232l-0.355,-0.232l-0.355,-0.231l-0.355,-0.231l-0.357,-0.229l-0.358,-0.229l-0.359,-0.228l-0.36,-0.227l-0.361,-0.227l-0.361,-0.225l-0.363,-0.225l-0.364,-0.224l-0.365,-0.223l-0.365,-0.223l-0.367,-0.222l-0.367,-0.22l-0.369,-0.22l-0.37,-0.22l-0.37,-0.218l-0.372,-0.218l-0.372,-0.216l-0.374,-0.216l-0.374,-0.215l-0.375,-0.215l-0.377,-0.213l-0.377,-0.213l-0.379,-0.212l-0.379,-0.211l-0.38,-0.21l-0.382,-0.209l-0.382,-0.208l-0.384,-0.208l-0.384,-0.207l-0.385,-0.205l-0.387,-0.206l-0.387,-0.204l-0.389,-0.203l-0.389,-0.202l-0.39,-0.202l-0.392,-0.201l-0.392,-0.199l-0.394,-0.199l-0.394,-0.198l-0.395,-0.198l-0.397,-0.196l-0.397,-0.195l-0.399,-0.195l-0.399,-0.193l-0.401,-0.193l-0.402,-0.192l-0.402,-0.191l-0.404,-0.19l-0.404,-0.189l-0.406,-0.188l-0.407,-0.188l-0.407,-0.186l-0.409,-0.186l-0.41,-0.184l-0.411,-0.184l-0.411,-0.182l-0.413,-0.182l-0.414,-0.181l-0.415,-0.18l-0.416,-0.179l-0.417,-0.178l-0.418,-0.177l-0.419,-0.176l-0.42,-0.176l-0.422,-0.174l-0.422,-0.173l-0.423,-0.173l-0.424,-0.171l-0.426,-0.171l-0.426,-0.169l-0.428,-0.169l-0.428,-0.167l-0.43,-0.167l-0.43,-0.165l-0.432,-0.165l-0.433,-0.164l-0.434,-0.162l-0.434,-0.162l-0.436,-0.161l-0.437,-0.16l-0.439,-0.158l-0.439,-0.158l-0.44,-0.157l-0.441,-0.156l-0.442,-0.154l-0.444,-0.154l-0.444,-0.153l-0.446,-0.152l-0.447,-0.15l-0.447,-0.15l-0.449,-0.149l-0.45,-0.147l-0.451,-0.147l-0.452,-0.146l-0.453,-0.144l-0.454,-0.144l-0.456,-0.142l-0.456,-0.142l-0.457,-0.14l-0.459,-0.14l-0.46,-0.138l-0.46,-0.137l-0.462,-0.136l-0.463,-0.136l-0.464,-0.134l-0.465,-0.133l-0.467,-0.132l-0.467,-0.131l-0.468,-0.13l-0.47,-0.129l-0.47,-0.127l-0.472,-0.127l-0.473,-0.126l-0.474,-0.124l-0.475,-0.124l-0.476,-0.122l-0.478,-0.121l-0.478,-0.121l-0.479,-0.119l-0.481,-0.118l-0.482,-0.116l-0.483,-0.116l-0.484,-0.115l-0.485,-0.114l-0.486,-0.112l-0.487,-0.111l-0.489,-0.111l-0.489,-0.109l-0.491,-0.108l-0.492,-0.107l-0.493,-0.105l-0.494,-0.105l-0.495,-0.104l-0.497,-0.102l-0.497,-0.101l-0.499,-0.1l-0.5,-0.099l-0.501,-0.098l-0.502,-0.097l-0.503,-0.095l-0.504,-0.095l-0.506,-0.093l-0.506,-0.092l-0.508,-0.091l-0.509,-0.089l-0.51,-0.089l-0.512,-0.087l-0.512,-0.087l-0.514,-0.085l-0.514,-0.084l-0.516,-0.082l-0.517,-0.082l-0.518,-0.08l-0.52,-0.079l-0.52,-0.078l-0.522,-0.077l-0.523,-0.076l-0.524,-0.074l-0.525,-0.073l-0.526,-0.072l-0.528,-0.071l-0.528,-0.069l-0.53,-0.069l-0.531,-0.067l-0.532,-0.066l-0.534,-0.064l-0.534,-0.064l-0.536,-0.062l-0.537,-0.061l-0.538,-0.06l-0.539,-0.058l-0.54,-0.058l-0.542,-0.056l-0.543,-0.055l-0.544,-0.053l-0.545,-0.053l-0.546,-0.051l-0.548,-0.049l-0.549,-0.049l-0.55,-0.047l-0.551,-0.046l-0.552,-0.045l-0.554,-0.044l-0.554,-0.042l-0.556,-0.041l-0.557,-0.04l-0.559,-0.038l-0.559,-0.037l-0.561,-0.036l-0.562,-0.035l-0.563,-0.033l-0.565,-0.032l-0.565,-0.031l-0.567,-0.03l-0.568,-0.028l-0.569,-0.027l-0.571,-0.025l-0.571,-0.024l-0.573,-0.023l-0.574,-0.022l-0.575,-0.02l-0.577,-0.019l-0.578,-0.018l-0.579,-0.016l-0.58,-0.015l-0.581,-0.014l-0.583,-0.012l-0.584,-0.011l-0.585,-0.01l-0.586,-0.009l-0.588,-0.007l-0.589,-0.005l-0.59,-0.005l-0.591,-0.003l-0.593,-0.001l-0.593,-0.001l-0.595,0.002l-0.597,0.002l-0.597,0.004l-0.599,0.005l-0.6,0.006l-0.601,0.008l-0.603,0.01l-0.603,0.01l-0.605,0.012l-0.607,0.014l-0.607,0.014l-0.609,0.017l-0.61,0.017l-0.611,0.019l-0.46,0.002l-0.461,0.003l-0.46,0.004l-0.461,0.006l-0.46,0.007l-0.46,0.008l-0.461,0.009l-0.46,0.011l-0.46,0.012l-0.46,0.013l-0.46,0.014l-0.46,0.016l-0.46,0.016l-0.46,0.018l-0.46,0.02l-0.459,0.02l-0.46,0.022l-0.459,0.023l-0.46,0.024l-0.459,0.025l-0.46,0.027l-0.459,0.028l-0.459,0.029l-0.459,0.03l-0.459,0.032l-0.459,0.033l-0.459,0.034l-0.459,0.035l-0.458,0.037l-0.459,0.038l-0.458,0.039l-0.458,0.04l-0.459,0.042l-0.458,0.042l-0.458,0.044l-0.457,0.046l-0.458,0.046l-0.458,0.048l-0.457,0.049l-0.458,0.05l-0.457,0.052l-0.457,0.052l-0.457,0.054l-0.457,0.055l-0.456,0.057l-0.457,0.057l-0.456,0.059l-0.457,0.061l-0.456,0.061l-0.456,0.063l-0.455,0.064l-0.456,0.065l-0.456,0.066l-0.455,0.068l-0.455,0.069l-0.455,0.07l-0.455,0.071l-0.455,0.073l-0.454,0.073l-0.455,0.076l-0.454,0.076l-0.454,0.077l-0.454,0.079l-0.453,0.08l-0.454,0.082l-0.453,0.082l-0.453,0.084l-0.453,0.085l-0.453,0.086l-0.452,0.088l-0.453,0.089l-0.452,0.09l-0.452,0.091l-0.451,0.092l-0.452,0.094l-0.451,0.095l-0.451,0.096l-0.451,0.098l-0.451,0.099l-0.45,0.1l-0.45,0.101l-0.45,0.103l-0.45,0.103l-0.449,0.105l-0.45,0.106l-0.449,0.108l-0.449,0.109l-0.448,0.11l-0.448,0.111l-0.448,0.112l-0.448,0.114l-0.448,0.115l-0.447,0.116l-0.447,0.118l-0.447,0.119l-0.447,0.12l-0.446,0.121l-0.446,0.122l-0.446,0.124l-0.445,0.125l-0.446,0.126l-0.445,0.128l-0.444,0.128l-0.445,0.13l-0.444,0.132l-0.444,0.132l-0.443,0.134l-0.444,0.135l-0.443,0.136l-0.443,0.138l-0.442,0.138l-0.442,0.14l-0.442,0.142l-0.441,0.142l-0.442,0.144l-0.441,0.145l-0.44,0.146l-0.441,0.148l-0.44,0.148l-0.439,0.15l-0.44,0.152l-0.439,0.152l-0.438,0.154l-0.439,0.155l-0.438,0.156l-0.438,0.158l-0.437,0.158l-0.437,0.161l-0.437,0.161l-0.436,0.162l-0.437,0.164l-0.435,0.165l-0.436,0.167l-0.435,0.167l-0.434,0.169l-0.435,0.17l-0.434,0.171l-0.433,0.173l-0.434,0.174l-0.433,0.175l-0.432,0.176l-0.432,0.178l-0.432,0.179l-0.432,0.18l-0.431,0.181l-0.43,0.183l-0.431,0.184l-0.43,0.185l-0.429,0.186l-0.429,0.188l-0.429,0.189l-0.429,0.19l-0.428,0.192l-0.427,0.192l-0.427,0.194l-0.427,0.195l-0.427,0.197l-0.426,0.198l-0.425,0.199l-0.425,0.2l-0.425,0.201l-0.425,0.203l-0.424,0.204l-0.423,0.205l-0.423,0.207l-0.423,0.208l-0.422,0.209l-0.422,0.21l-0.421,0.212l-0.421,0.213l-0.421,0.214l-0.42,0.215l-0.42,0.217l-0.419,0.218l-0.419,0.219l-0.418,0.22l-0.418,0.222l-0.417,0.223l-0.417,0.224l-0.417,0.225l-0.416,0.227l-0.416,0.228l-0.415,0.229l-0.415,0.231l-0.414,0.232l-0.413,0.233l-0.414,0.234l-0.413,0.235l-0.412,0.237l-0.412,0.238l-0.411,0.24l-0.411,0.24l-0.41,0.242l-0.41,0.243l-0.41,0.245l-0.409,0.245l-0.408,0.247l-0.408,0.248l-0.407,0.25l-0.407,0.251l-0.407,0.251l-0.406,0.254l-0.405,0.254l-0.405,0.256l-0.404,0.257l-0.404,0.258l-0.404,0.26l-0.402,0.261l-0.403,0.262l-0.401,0.263l-0.402,0.265l-0.4,0.266l-0.401,0.267l-0.399,0.268l-0.399,0.27l-0.399,0.271l-0.398,0.272l-0.397,0.274l-0.397,0.275l-0.397,0.276l-0.396,0.277l-0.395,0.278l-0.394,0.28l-0.395,0.281l-0.393,0.283l-0.393,0.283l-0.393,0.285l-0.392,0.286l-0.391,0.288l-0.391,0.289l-0.39,0.29l-0.389,0.291l-0.389,0.292l-0.389,0.294l-0.388,0.295l-0.387,0.297l-0.387,0.297l-0.386,0.299l-0.385,0.3l-0.385,0.302l-0.384,0.302l-0.384,0.304l-0.383,0.305l-0.383,0.307l-0.381,0.308l-0.382,0.309l-0.38,0.31l-0.38,0.312l-0.38,0.312l-0.378,0.315l-0.379,0.315l-0.377,0.317l-0.377,0.318l-0.376,0.319l-0.376,0.32l-0.375,0.322l-0.374,0.323l-0.374,0.324l-0.373,0.326l-0.373,0.327l-0.371,0.328l-0.372,0.329l-0.37,0.331l-0.37,0.332l-0.369,0.333l-0.369,0.335l-0.367,0.335l-0.368,0.337l-0.366,0.339l-0.366,0.339l-0.365,0.341l-0.365,0.342l-0.364,0.344l-0.363,0.344l-0.362,0.346l-0.362,0.347l-0.361,0.349l-0.361,0.35l-0.359,0.351l-0.359,0.352l-0.359,0.354l-0.358,0.355l-0.356,0.356l-0.357,0.357l-0.355,0.359l-0.355,0.36l-0.354,0.361l-0.354,0.363l-0.352,0.364l-0.352,0.365l-0.352,0.366l-0.35,0.368l-0.35,0.369l-0.349,0.37l-0.349,0.371l-0.347,0.373l-0.347,0.374l-0.347,0.376l-0.345,0.376l-0.345,0.378l-0.344,0.379l-0.343,0.381l-0.342,0.381l-0.342,0.383l-0.341,0.385l-0.34,0.385l-0.34,0.387l-0.339,0.388l-0.338,0.39l-0.337,0.39l-0.336,0.392l-0.336,0.393l-0.335,0.395l-0.334,0.396l-0.333,0.397l-0.333,0.398l-0.332,0.4l-0.331,0.401l-0.33,0.402l-0.33,0.403l-0.328,0.405l-0.328,0.406l-0.327,0.408l-0.327,0.408l-0.325,0.41l-0.325,0.411l-0.324,0.413l-0.323,0.414l-0.322,0.415l-0.321,0.416l-0.321,0.418l-0.32,0.418l-0.319,0.421l-0.318,0.421l-0.318,0.423l-0.316,0.424l-0.316,0.425l-0.315,0.427l-0.314,0.427l-0.313,0.43l-0.312,0.43l-0.312,0.432l-0.311,0.433l-0.31,0.434l-0.309,0.436l-0.308,0.437l-0.307,0.438l-0.307,0.439l-0.305,0.441l-0.305,0.442l-0.304,0.443l-0.303,0.445l-0.302,0.446l-0.302,0.447l-0.3,0.448l-0.3,0.45l-0.298,0.451l-0.298,0.452l-0.297,0.454l-0.296,0.455l-0.296,0.456l-0.294,0.457l-0.293,0.459l-0.293,0.46l-0.291,0.461l-0.291,0.463l-0.29,0.464l-0.289,0.465l-0.288,0.467l-0.287,0.467l-0.286,0.469l-0.286,0.471l-0.284,0.471l-0.284,0.473l-0.282,0.474l-0.282,0.476l-0.281,0.477l-0.28,0.478l-0.279,0.479l-0.278,0.481l-0.277,0.482l-0.276,0.483l-0.275,0.484l-0.274,0.486l-0.273,0.487l-0.273,0.489l-0.271,0.489l-0.271,0.491l-0.269,0.493l-0.269,0.493l-0.267,0.495l-0.267,0.496l-0.266,0.498l-0.265,0.498l-0.263,0.5l-0.263,0.502l-0.262,0.502l-0.261,0.504l-0.26,0.505l-0.259,0.507l-0.258,0.508l-0.257,0.509l-0.256,0.51l-0.255,0.512l-0.254,0.513l-0.253,0.514l-0.252,0.516l-0.251,0.516l-0.25,0.519l-0.249,0.519l-0.248,0.521l-0.247,0.522l-0.246,0.523l-0.245,0.525l-0.244,0.526l-0.243,0.527l-0.242,0.528l-0.241,0.53l-0.24,0.531l-0.239,0.532l-0.238,0.534l-0.237,0.535l-0.236,0.536l-0.235,0.538l-0.233,0.539l-0.233,0.54l-0.232,0.541l-0.231,0.543l-0.229,0.544l-0.229,0.546l-0.227,0.546l-0.227,0.548l-0.225,0.549l-0.225,0.551l-0.223,0.552l-0.222,0.553l-0.221,0.554l-0.221,0.556l-0.219,0.557l-0.218,0.558l-0.217,0.56l-0.215,0.561l-0.215,0.562l-0.214,0.564l-0.213,0.565l-0.211,0.566l-0.211,0.567l-0.209,0.569l-0.208,0.57l-0.207,0.571l-0.206,0.573l-0.205,0.574l-0.204,0.575l-0.203,0.577l-0.202,0.577l-0.2,0.58l-0.2,0.58l-0.198,0.582l-0.198,0.583l-0.196,0.584l-0.195,0.586l-0.194,0.587l-0.192,0.588l-0.192,0.589l-0.19,0.591l-0.19,0.592l-0.188,0.594l-0.187,0.595l-0.186,0.596l-0.185,0.597l-0.184,0.599l-0.182,0.6l-0.182,0.601l-0.18,0.603l-0.179,0.603l-0.178,0.606l-0.177,0.606l-0.175,0.608l-0.175,0.609l-0.173,0.61l-0.172,0.612l-0.171,0.613l-0.17,0.614l-0.169,0.616l-0.167,0.617l-0.166,0.618l-0.165,0.62l-0.164,0.621l-0.163,0.622l-0.162,0.623l-0.16,0.625l-0.159,0.626l-0.158,0.627l-0.157,0.629l-0.155,0.63l-0.155,0.631l-0.153,0.633l-0.152,0.634l-0.151,0.635l-0.149,0.637l-0.149,0.637l-0.147,0.64l-0.146,0.64l-0.144,0.642l-0.144,0.643l-0.142,0.644l-0.141,0.646l-0.14,0.647l-0.138,0.648l-0.138,0.65l-0.136,0.651l-0.134,0.652l0.102,-0.922l0.104,-0.92l0.108,-0.918l0.11,-0.917l0.113,-0.915l0.116,-0.913l0.118,-0.911l0.121,-0.909l0.124,-0.907l0.126,-0.906l0.129,-0.904l0.132,-0.902l0.134,-0.9l0.137,-0.898l0.14,-0.897l0.142,-0.894l0.145,-0.893l0.147,-0.891l0.15,-0.889l0.153,-0.888l0.156,-0.885l0.158,-0.884l0.16,-0.882l0.163,-0.88l0.166,-0.878l0.169,-0.877l0.171,-0.875l0.173,-0.872l0.176,-0.871l0.179,-0.869l0.181,-0.868l0.184,-0.865l0.186,-0.864l0.189,-0.862l0.191,-0.86l0.194,-0.858l0.197,-0.856l0.199,-0.855l0.201,-0.852l0.204,-0.851l0.207,-0.849l0.209,-0.847l0.211,-0.846l0.214,-0.843l0.216,-0.842l0.219,-0.84l0.221,-0.838l0.224,-0.836l0.226,-0.834l0.229,-0.833l0.231,-0.831l0.234,-0.828l0.236,-0.827l0.238,-0.825l0.241,-0.824l0.243,-0.821l0.246,-0.82l0.248,-0.818l0.25,-0.816l0.253,-0.814l0.255,-0.812l0.258,-0.81l0.26,-0.809l0.262,-0.807l0.264,-0.805l0.267,-0.803l0.27,-0.801l0.271,-0.799l0.274,-0.798l0.277,-0.795l0.278,-0.794l0.281,-0.792l0.284,-0.79l0.285,-0.789l0.288,-0.786l0.29,-0.785l0.293,-0.782l0.295,-0.781l0.297,-0.779l0.299,-0.778l0.302,-0.775l0.303,-0.773l0.307,-0.772l0.308,-0.77l0.31,-0.768l0.313,-0.766l0.315,-0.764l0.318,-0.762l0.319,-0.761l0.322,-0.759l0.324,-0.756l0.326,-0.755l0.328,-0.753l0.331,-0.752l0.332,-0.749l0.335,-0.748l0.337,-0.745l0.339,-0.744l0.342,-0.742l0.343,-0.74l0.346,-0.738l0.348,-0.737l0.35,-0.734l0.352,-0.733l0.354,-0.731l0.356,-0.728l0.359,-0.728l0.36,-0.725l0.363,-0.723l0.364,-0.722l0.367,-0.719l0.369,-0.718l0.371,-0.716l0.373,-0.714l0.375,-0.712l0.378,-0.71l0.379,-0.709l0.381,-0.706l0.383,-0.705l0.386,-0.703l0.387,-0.701l0.39,-0.699l0.391,-0.697l0.394,-0.695l0.395,-0.694l0.398,-0.691l0.399,-0.69l0.402,-0.688l0.403,-0.686l0.405,-0.684l0.408,-0.682l0.409,-0.68l0.412,-0.679l0.413,-0.676l0.415,-0.675l0.417,-0.673l0.42,-0.671l0.421,-0.669l0.423,-0.667l0.425,-0.666l0.426,-0.663l0.429,-0.662l0.431,-0.659l0.432,-0.658l0.435,-0.656l0.436,-0.654l0.438,-0.652l0.441,-0.651l0.442,-0.648l0.443,-0.647l0.446,-0.644l0.448,-0.643l0.449,-0.641l0.451,-0.639l0.453,-0.637l0.455,-0.635l0.457,-0.634l0.458,-0.631l0.461,-0.63l0.462,-0.627l0.464,-0.626l0.466,-0.624l0.467,-0.622l0.47,-0.62l0.471,-0.619l0.473,-0.616l0.474,-0.614l0.477,-0.613l0.478,-0.611l0.48,-0.608l0.481,-0.607l0.484,-0.605l0.485,-0.604l0.487,-0.601l0.488,-0.599l0.49,-0.598l0.492,-0.595l0.494,-0.594l0.495,-0.592l0.498,-0.589l0.498,-0.588l0.501,-0.586l0.502,-0.585l0.504,-0.582l0.505,-0.58l0.507,-0.579l0.509,-0.576l0.51,-0.575l0.512,-0.573l0.514,-0.571l0.515,-0.569l0.517,-0.567l0.519,-0.565l0.52,-0.563l0.521,-0.562l0.524,-0.559l0.525,-0.558l0.526,-0.555l0.528,-0.554l0.53,-0.552l0.531,-0.55l0.533,-0.548l0.534,-0.546l0.536,-0.544l0.538,-0.543l0.539,-0.54l0.54,-0.538l0.542,-0.537l0.544,-0.535l0.545,-0.533l0.546,-0.53l0.548,-0.529l0.55,-0.527l0.551,-0.526l0.553,-0.523l0.554,-0.521l0.555,-0.52l0.557,-0.517l0.559,-0.516l0.56,-0.513l0.561,-0.512l0.563,-0.51l0.564,-0.508l0.566,-0.506l0.567,-0.504l0.568,-0.502l0.57,-0.5l0.572,-0.499l0.572,-0.496l0.575,-0.495l0.575,-0.492l0.577,-0.491l0.578,-0.489l0.58,-0.486l0.581,-0.485l0.583,-0.483l0.583,-0.481l0.586,-0.479l0.586,-0.478l0.588,-0.475l0.589,-0.473l0.591,-0.472l0.592,-0.469l0.593,-0.468l0.594,-0.465l0.596,-0.464l0.597,-0.462l0.598,-0.46l0.6,-0.458l0.601,-0.456l0.602,-0.454l0.604,-0.452l0.605,-0.45l0.606,-0.449l0.607,-0.446l0.608,-0.445l0.61,-0.442l0.611,-0.441l0.612,-0.438l0.614,-0.437l0.615,-0.435l0.616,-0.433l0.617,-0.431l0.618,-0.429l0.619,-0.427l0.621,-0.425l0.622,-0.423l0.623,-0.421l0.624,-0.42l0.626,-0.417l0.626,-0.416l0.628,-0.413l0.629,-0.412l0.63,-0.409l0.631,-0.408l0.632,-0.406l0.634,-0.404l0.634,-0.401l0.636,-0.4l0.637,-0.398l0.638,-0.396l0.639,-0.395l0.64,-0.392l0.641,-0.39l0.642,-0.388l0.643,-0.387l0.645,-0.384l0.645,-0.382l0.647,-0.381l0.647,-0.379l0.649,-0.376l0.65,-0.375l0.65,-0.373l0.652,-0.37l0.653,-0.369l0.653,-0.367l0.655,-0.365l0.656,-0.363l0.657,-0.361l0.657,-0.359l0.659,-0.357l0.66,-0.355l0.66,-0.354l0.662,-0.351l0.663,-0.349l0.663,-0.348l0.665,-0.345l0.665,-0.343l0.667,-0.342l0.667,-0.339l0.668,-0.338l0.67,-0.336l0.67,-0.333l0.671,-0.332l0.672,-0.33l0.673,-0.328l0.673,-0.326l0.675,-0.323l0.675,-0.322l0.677,-0.32l0.677,-0.318l0.678,-0.316l0.679,-0.315l0.68,-0.312l0.681,-0.31l0.681,-0.308l0.683,-0.306l0.683,-0.305l0.684,-0.302l0.685,-0.3l0.685,-0.299l0.687,-0.296l0.687,-0.295l0.688,-0.292l0.689,-0.291l0.69,-0.288l0.69,-0.287l0.691,-0.284l0.692,-0.283l0.693,-0.281l0.694,-0.278l0.694,-0.277l0.695,-0.275l0.695,-0.273l0.697,-0.271l0.697,-0.269l0.698,-0.266l0.699,-0.265l0.699,-0.263l0.7,-0.261l0.701,-0.259l0.701,-0.257l0.702,-0.255l0.703,-0.254l0.703,-0.251l0.704,-0.249l0.705,-0.247l0.706,-0.245l0.706,-0.243l0.707,-0.242l0.707,-0.239l0.708,-0.237l0.709,-0.235l0.709,-0.234l0.71,-0.231l0.71,-0.229l0.711,-0.228l0.712,-0.225l0.712,-0.224l0.713,-0.221l0.713,-0.219l0.715,-0.218l0.714,-0.215l0.715,-0.214l0.716,-0.211l0.716,-0.21l0.717,-0.207l0.717,-0.206l0.718,-0.204l0.719,-0.201l0.719,-0.2l0.719,-0.197l0.72,-0.196l0.721,-0.194l0.721,-0.191l0.721,-0.19l0.722,-0.188l0.722,-0.185l0.723,-0.184l0.724,-0.182l0.724,-0.179l0.724,-0.178l0.725,-0.176l0.725,-0.174l0.726,-0.171l0.726,-0.17l0.726,-0.168l0.727,-0.166l0.727,-0.163l0.728,-0.162l0.728,-0.16l0.729,-0.158l0.729,-0.155l0.729,-0.154l0.73,-0.152l0.73,-0.15l0.731,-0.147l0.731,-0.146l0.731,-0.144l0.732,-0.142l0.731,-0.139l0.733,-0.138l0.732,-0.136l0.733,-0.134l0.734,-0.132l0.733,-0.129l0.734,-0.128l0.734,-0.126l0.735,-0.124l0.735,-0.121l0.735,-0.12l0.735,-0.118l0.736,-0.116l0.736,-0.113l0.736,-0.112l0.737,-0.11l0.736,-0.107l0.737,-0.106l0.737,-0.104l0.738,-0.101l0.738,-0.1l0.738,-0.098l0.738,-0.095l0.738,-0.094l0.739,-0.092l0.738,-0.089l0.739,-0.088l0.74,-0.085l0.739,-0.084l0.74,-0.082l0.739,-0.079l0.74,-0.078l0.74,-0.075l0.74,-0.074l0.741,-0.071l0.74,-0.07l0.741,-0.067l0.741,-0.065l0.741,-0.064l0.741,-0.061l0.741,-0.06l0.741,-0.057l0.741,-0.055l0.742,-0.054l0.741,-0.051l0.742,-0.049l0.742,-0.047l0.742,-0.046l0.741,-0.043l0.742,-0.041l0.742,-0.039l0.742,-0.037l0.743,-0.036l0.742,-0.033l0.742,-0.031l0.742,-0.029l0.742,-0.027l0.743,-0.025l0.742,-0.023l0.742,-0.021l0.742,-0.018l0.743,-0.017l0.742,-0.015l0.742,-0.013l0.742,-0.011l0.742,-0.009l0.743,-0.006l0.742,-0.005l0.742,-0.003l0.742,0l0.742,0.001Zm-1.466,7.999l-0.721,0.003l-0.72,0.005l-0.72,0.006l-0.72,0.009l-0.721,0.01l-0.72,0.012l-0.721,0.015l-0.72,0.016l-0.72,0.019l-0.721,0.02l-0.72,0.022l-0.721,0.024l-0.72,0.027l-0.721,0.028l-0.72,0.03l-0.72,0.032l-0.721,0.034l-0.72,0.036l-0.72,0.038l-0.72,0.04l-0.72,0.042l-0.72,0.044l-0.72,0.046l-0.72,0.048l-0.72,0.05l-0.72,0.051l-0.72,0.054l-0.719,0.056l-0.72,0.057l-0.719,0.06l-0.719,0.061l-0.719,0.064l-0.719,0.065l-0.719,0.068l-0.719,0.069l-0.719,0.072l-0.718,0.073l-0.718,0.075l-0.718,0.077l-0.718,0.08l-0.718,0.081l-0.718,0.083l-0.717,0.085l-0.717,0.087l-0.717,0.089l-0.717,0.091l-0.717,0.092l-0.716,0.095l-0.716,0.097l-0.716,0.099l-0.716,0.1l-0.715,0.103l-0.716,0.105l-0.715,0.106l-0.714,0.109l-0.715,0.11l-0.714,0.112l-0.714,0.115l-0.713,0.116l-0.714,0.118l-0.713,0.12l-0.713,0.122l-0.712,0.124l-0.712,0.126l-0.712,0.128l-0.712,0.13l-0.711,0.132l-0.711,0.134l-0.71,0.135l-0.71,0.138l-0.71,0.139l-0.71,0.142l-0.709,0.143l-0.709,0.146l-0.708,0.147l-0.708,0.149l-0.708,0.152l-0.707,0.153l-0.707,0.155l-0.706,0.157l-0.706,0.159l-0.706,0.161l-0.705,0.162l-0.705,0.165l-0.704,0.167l-0.704,0.169l-0.703,0.17l-0.704,0.173l-0.702,0.174l-0.702,0.176l-0.702,0.179l-0.701,0.18l-0.701,0.182l-0.7,0.184l-0.7,0.186l-0.699,0.188l-0.699,0.19l-0.698,0.192l-0.698,0.193l-0.697,0.196l-0.696,0.197l-0.697,0.2l-0.695,0.201l-0.695,0.204l-0.695,0.205l-0.694,0.207l-0.693,0.209l-0.693,0.211l-0.692,0.213l-0.692,0.215l-0.691,0.217l-0.691,0.219l-0.69,0.22l-0.689,0.223l-0.689,0.224l-0.688,0.227l-0.688,0.228l-0.686,0.23l-0.687,0.232l-0.685,0.234l-0.685,0.236l-0.685,0.238l-0.684,0.24l-0.683,0.241l-0.682,0.244l-0.682,0.246l-0.681,0.247l-0.68,0.249l-0.68,0.252l-0.679,0.253l-0.678,0.255l-0.678,0.257l-0.677,0.259l-0.676,0.26l-0.675,0.263l-0.675,0.265l-0.674,0.266l-0.673,0.269l-0.673,0.27l-0.672,0.272l-0.671,0.274l-0.67,0.276l-0.67,0.278l-0.668,0.28l-0.668,0.282l-0.668,0.283l-0.666,0.286l-0.666,0.287l-0.664,0.29l-0.664,0.291l-0.664,0.293l-0.662,0.295l-0.662,0.297l-0.66,0.299l-0.66,0.3l-0.659,0.303l-0.659,0.305l-0.657,0.306l-0.656,0.308l-0.656,0.31l-0.655,0.312l-0.654,0.314l-0.653,0.316l-0.652,0.318l-0.651,0.32l-0.651,0.321l-0.649,0.323l-0.649,0.326l-0.647,0.327l-0.647,0.329l-0.646,0.331l-0.645,0.333l-0.644,0.335l-0.643,0.336l-0.642,0.339l-0.641,0.34l-0.64,0.342l-0.639,0.344l-0.639,0.346l-0.637,0.348l-0.636,0.35l-0.635,0.352l-0.635,0.353l-0.633,0.356l-0.632,0.357l-0.632,0.359l-0.63,0.361l-0.629,0.363l-0.628,0.365l-0.628,0.366l-0.626,0.369l-0.625,0.37l-0.624,0.373l-0.623,0.374l-0.622,0.376l-0.621,0.378l-0.62,0.38l-0.618,0.381l-0.618,0.384l-0.617,0.385l-0.615,0.387l-0.615,0.39l-0.613,0.391l-0.612,0.392l-0.611,0.395l-0.61,0.397l-0.609,0.398l-0.608,0.401l-0.606,0.402l-0.606,0.404l-0.604,0.406l-0.603,0.407l-0.602,0.41l-0.601,0.412l-0.6,0.413l-0.598,0.415l-0.597,0.417l-0.596,0.419l-0.595,0.421l-0.594,0.423l-0.593,0.424l-0.591,0.427l-0.59,0.428l-0.589,0.43l-0.587,0.432l-0.587,0.434l-0.585,0.435l-0.584,0.438l-0.583,0.439l-0.581,0.442l-0.58,0.443l-0.579,0.445l-0.578,0.446l-0.576,0.449l-0.575,0.45l-0.574,0.453l-0.573,0.454l-0.571,0.456l-0.57,0.458l-0.568,0.46l-0.568,0.461l-0.566,0.464l-0.564,0.465l-0.564,0.467l-0.562,0.469l-0.56,0.471l-0.56,0.473l-0.558,0.474l-0.556,0.476l-0.556,0.479l-0.553,0.48l-0.553,0.482l-0.551,0.483l-0.55,0.486l-0.548,0.487l-0.547,0.49l-0.546,0.491l-0.544,0.493l-0.543,0.494l-0.541,0.497l-0.54,0.498l-0.538,0.501l-0.537,0.502l-0.536,0.504l-0.534,0.506l-0.533,0.507l-0.531,0.51l-0.53,0.511l-0.528,0.513l-0.527,0.515l-0.526,0.517l-0.524,0.519l-0.522,0.52l-0.521,0.523l-0.52,0.524l-0.517,0.526l-0.517,0.528l-0.515,0.529l-0.513,0.532l-0.512,0.533l-0.51,0.535l-0.509,0.537l-0.508,0.539l-0.505,0.541l-0.504,0.542l-0.503,0.545l-0.501,0.546l-0.5,0.548l-0.498,0.55l-0.496,0.552l-0.495,0.553l-0.493,0.555l-0.492,0.557l-0.49,0.559l-0.488,0.561l-0.487,0.563l-0.485,0.564l-0.483,0.567l-0.482,0.568l-0.481,0.57l-0.478,0.571l-0.477,0.574l-0.476,0.575l-0.473,0.578l-0.031,0.037l0.108,-0.096l0.387,-0.346l0.388,-0.344l0.388,-0.343l0.389,-0.341l0.39,-0.341l0.391,-0.339l0.391,-0.337l0.392,-0.337l0.393,-0.334l0.393,-0.334l0.394,-0.333l0.395,-0.331l0.395,-0.329l0.396,-0.329l0.397,-0.327l0.397,-0.326l0.398,-0.324l0.399,-0.323l0.399,-0.322l0.4,-0.32l0.401,-0.32l0.401,-0.317l0.402,-0.317l0.402,-0.315l0.403,-0.314l0.404,-0.313l0.404,-0.311l0.406,-0.31l0.405,-0.309l0.407,-0.307l0.407,-0.306l0.407,-0.305l0.408,-0.303l0.409,-0.302l0.409,-0.301l0.41,-0.299l0.411,-0.298l0.411,-0.297l0.412,-0.295l0.413,-0.295l0.413,-0.292l0.413,-0.292l0.414,-0.29l0.415,-0.289l0.415,-0.287l0.417,-0.287l0.416,-0.285l0.417,-0.283l0.418,-0.282l0.418,-0.281l0.419,-0.28l0.419,-0.278l0.42,-0.277l0.421,-0.276l0.421,-0.274l0.422,-0.273l0.422,-0.272l0.423,-0.27l0.423,-0.27l0.424,-0.267l0.424,-0.267l0.425,-0.265l0.426,-0.264l0.426,-0.262l0.426,-0.261l0.427,-0.26l0.428,-0.259l0.428,-0.257l0.429,-0.256l0.429,-0.254l0.43,-0.254l0.43,-0.252l0.431,-0.25l0.431,-0.249l0.432,-0.248l0.432,-0.247l0.433,-0.245l0.433,-0.245l0.434,-0.242l0.434,-0.242l0.435,-0.24l0.435,-0.238l0.436,-0.238l0.436,-0.236l0.437,-0.235l0.437,-0.233l0.438,-0.232l0.438,-0.231l0.439,-0.23l0.439,-0.228l0.439,-0.227l0.441,-0.226l0.44,-0.224l0.441,-0.223l0.441,-0.221l0.442,-0.221l0.443,-0.219l0.442,-0.217l0.444,-0.217l0.443,-0.215l0.444,-0.213l0.445,-0.213l0.445,-0.211l0.445,-0.21l0.446,-0.208l0.446,-0.207l0.447,-0.206l0.447,-0.205l0.448,-0.203l0.448,-0.202l0.448,-0.2l0.449,-0.2l0.449,-0.197l0.45,-0.197l0.45,-0.195l0.45,-0.194l0.451,-0.193l0.451,-0.191l0.452,-0.19l0.452,-0.189l0.453,-0.187l0.452,-0.187l0.453,-0.184l0.454,-0.184l0.454,-0.182l0.454,-0.181l0.455,-0.179l0.455,-0.178l0.455,-0.177l0.456,-0.176l0.456,-0.174l0.457,-0.173l0.457,-0.172l0.457,-0.17l0.458,-0.169l0.458,-0.168l0.458,-0.166l0.459,-0.165l0.459,-0.164l0.459,-0.162l0.46,-0.161l0.46,-0.16l0.46,-0.159l0.461,-0.157l0.461,-0.156l0.461,-0.154l0.462,-0.153l0.462,-0.152l0.462,-0.151l0.463,-0.149l0.463,-0.148l0.463,-0.147l0.463,-0.145l0.464,-0.144l0.464,-0.143l0.465,-0.141l0.465,-0.141l0.465,-0.138l0.465,-0.138l0.466,-0.136l0.465,-0.135l0.467,-0.133l0.466,-0.133l0.467,-0.131l0.467,-0.129l0.467,-0.129l0.468,-0.127l0.468,-0.125l0.468,-0.125l0.468,-0.123l0.469,-0.122l0.469,-0.12l0.469,-0.119l0.469,-0.118l0.47,-0.117l0.47,-0.115l0.47,-0.114l0.471,-0.112l0.47,-0.112l0.471,-0.11l0.471,-0.108l0.472,-0.108l0.471,-0.106l0.472,-0.104l0.472,-0.104l0.473,-0.102l0.472,-0.101l0.473,-0.099l0.473,-0.099l0.473,-0.097l0.473,-0.095l0.474,-0.094l0.474,-0.093l0.474,-0.092l0.474,-0.091l0.474,-0.089l0.475,-0.087l0.474,-0.087l0.475,-0.085l0.476,-0.084l0.475,-0.082l0.475,-0.082l0.476,-0.08l0.476,-0.078l0.476,-0.078l0.476,-0.076l0.477,-0.074l0.476,-0.074l0.477,-0.072l0.477,-0.071l0.477,-0.069l0.477,-0.069l0.478,-0.066l0.477,-0.066l0.478,-0.064l0.478,-0.063l0.478,-0.062l0.478,-0.06l0.478,-0.06l0.478,-0.057l0.479,-0.057l0.479,-0.055l0.478,-0.054l0.479,-0.053l0.479,-0.051l0.48,-0.05l0.479,-0.049l0.479,-0.047l0.48,-0.046l0.479,-0.045l0.48,-0.043l0.48,-0.042l0.48,-0.041l0.48,-0.04l0.48,-0.038l0.48,-0.037l0.481,-0.036l0.48,-0.034l0.481,-0.033l0.48,-0.032l0.481,-0.031l0.481,-0.029l0.481,-0.028l0.481,-0.027l0.481,-0.025l0.481,-0.024l0.481,-0.023l0.481,-0.021l0.482,-0.02l0.481,-0.019l0.482,-0.018l0.481,-0.016l0.482,-0.015l0.481,-0.013l0.482,-0.013l0.481,-0.011l0.482,-0.01l0.482,-0.008l0.482,-0.007l0.482,-0.006l0.482,-0.005l0.482,-0.003l0.363,-0.001l0.513,-0.016l0.628,-0.018l0.627,-0.017l0.625,-0.015l0.624,-0.014l0.623,-0.012l0.622,-0.011l0.62,-0.01l0.619,-0.008l0.618,-0.007l0.617,-0.005l0.616,-0.004l0.614,-0.002l0.613,-0.002l0.612,0.001l0.611,0.001l0.61,0.004l0.608,0.004l0.608,0.006l0.606,0.007l0.605,0.009l0.603,0.01l0.603,0.011l0.601,0.013l0.6,0.014l0.599,0.016l0.598,0.017l0.596,0.018l0.595,0.019l0.595,0.021l0.593,0.023l0.591,0.023l0.591,0.025l0.589,0.027l0.589,0.028l0.587,0.029l0.586,0.03l0.584,0.032l0.584,0.033l0.582,0.035l0.581,0.035l0.58,0.037l0.579,0.039l0.578,0.04l0.576,0.041l0.576,0.042l0.574,0.044l0.573,0.045l0.572,0.047l0.571,0.047l0.569,0.049l0.568,0.051l0.568,0.051l0.566,0.053l0.565,0.054l0.563,0.056l0.563,0.057l0.561,0.058l0.561,0.059l0.559,0.061l0.558,0.062l0.556,0.063l0.556,0.065l0.555,0.066l0.553,0.067l0.552,0.068l0.551,0.07l0.55,0.071l0.549,0.072l0.548,0.073l0.546,0.075l0.545,0.076l0.545,0.077l0.543,0.079l0.542,0.08l0.54,0.08l0.54,0.083l0.539,0.083l0.537,0.085l0.536,0.086l0.535,0.087l0.534,0.089l0.533,0.089l0.532,0.091l0.53,0.092l0.53,0.094l0.528,0.094l0.528,0.096l0.526,0.097l0.525,0.098l0.523,0.1l0.523,0.1l0.522,0.102l0.52,0.103l0.52,0.104l0.518,0.106l0.517,0.106l0.516,0.108l0.515,0.109l0.514,0.111l0.512,0.111l0.512,0.113l0.51,0.113l0.509,0.115l0.509,0.116l0.507,0.118l0.506,0.118l0.504,0.12l0.504,0.121l0.503,0.122l0.501,0.123l0.501,0.124l0.499,0.125l0.498,0.127l0.497,0.128l0.497,0.129l0.494,0.13l0.494,0.131l0.493,0.132l0.492,0.134l0.49,0.134l0.49,0.136l0.488,0.137l0.487,0.138l0.486,0.139l0.485,0.14l0.484,0.141l0.483,0.143l0.482,0.143l0.48,0.145l0.48,0.146l0.478,0.147l0.478,0.148l0.476,0.149l0.475,0.15l0.474,0.151l0.474,0.153l0.471,0.153l0.471,0.155l0.47,0.155l0.469,0.157l0.467,0.158l0.467,0.159l0.465,0.16l0.465,0.161l0.463,0.162l0.462,0.163l0.461,0.164l0.461,0.166l0.459,0.166l0.457,0.167l0.457,0.169l0.456,0.169l0.455,0.171l0.454,0.171l0.452,0.173l0.451,0.174l0.451,0.174l0.449,0.176l0.449,0.177l0.447,0.177l0.446,0.179l0.445,0.18l0.444,0.181l0.443,0.182l0.442,0.183l0.441,0.183l0.439,0.185l0.439,0.186l0.438,0.187l0.436,0.188l0.436,0.189l0.434,0.19l0.434,0.19l0.432,0.192l0.431,0.193l0.431,0.194l0.429,0.195l0.428,0.195l0.427,0.197l0.426,0.198l0.425,0.198l0.424,0.2l0.423,0.201l0.422,0.201l0.421,0.203l0.419,0.203l0.419,0.204l0.418,0.206l0.416,0.206l0.416,0.207l0.414,0.208l0.414,0.209l0.412,0.21l0.412,0.211l0.41,0.212l0.409,0.213l0.409,0.214l0.407,0.214l0.406,0.216l0.405,0.216l0.404,0.218l0.404,0.218l0.402,0.219l0.401,0.22l0.4,0.221l0.399,0.222l0.398,0.223l0.397,0.223l0.395,0.225l0.395,0.225l0.394,0.227l0.393,0.227l0.392,0.228l0.391,0.229l0.389,0.229l0.389,0.231l0.388,0.231l0.387,0.233l0.385,0.233l0.385,0.234l0.384,0.235l0.382,0.235l0.382,0.237l0.38,0.237l0.38,0.239l0.379,0.239l0.377,0.239l0.377,0.241l0.375,0.242l0.375,0.242l0.373,0.243l0.373,0.244l0.371,0.245l0.371,0.246l0.37,0.246l0.368,0.247l0.367,0.248l0.367,0.249l0.365,0.25l0.365,0.25l0.363,0.251l0.363,0.252l0.362,0.253l0.36,0.253l0.36,0.255l0.358,0.255l0.358,0.255l0.356,0.257l0.356,0.257l0.354,0.258l0.354,0.259l0.353,0.26l0.351,0.26l0.351,0.261l0.349,0.262l0.349,0.263l0.348,0.263l0.347,0.264l0.345,0.265l0.345,0.265l0.344,0.267l0.343,0.267l0.341,0.267l0.341,0.269l0.34,0.269l0.339,0.27l0.338,0.27l0.337,0.271l0.336,0.272l0.335,0.273l0.334,0.273l0.333,0.274l0.333,0.275l0.33,0.275l0.331,0.276l0.329,0.277l0.328,0.277l0.328,0.278l0.326,0.279l0.326,0.279l0.324,0.281l0.324,0.28l0.322,0.282l0.322,0.282l0.32,0.282l0.32,0.284l0.319,0.284l0.318,0.284l0.317,0.285l0.316,0.286l0.315,0.287l0.314,0.287l0.313,0.288l0.312,0.288l0.311,0.289l0.31,0.29l0.31,0.29l0.308,0.291l0.308,0.291l0.306,0.292l0.306,0.293l0.305,0.293l0.304,0.294l0.302,0.294l0.302,0.295l0.301,0.296l0.3,0.296l0.3,0.297l0.298,0.297l0.297,0.298l0.297,0.299l0.295,0.299l0.295,0.299l0.293,0.301l0.293,0.3l0.292,0.301l0.291,0.302l0.29,0.303l0.289,0.302l0.288,0.304l0.287,0.304l0.287,0.304l0.285,0.306l0.285,0.305l0.284,0.306l0.282,0.307l0.282,0.307l0.281,0.308l0.28,0.308l0.28,0.309l0.278,0.309l0.277,0.31l0.277,0.31l0.276,0.31l0.274,0.312l0.274,0.312l0.273,0.312l0.272,0.312l0.272,0.313l0.27,0.314l0.269,0.314l0.269,0.315l0.268,0.315l0.267,0.315l0.266,0.316l0.265,0.317l0.264,0.317l0.263,0.317l0.263,0.318l0.262,0.318l0.26,0.319l0.261,0.319l0.258,0.32l0.259,0.32l0.257,0.321l0.257,0.321l0.255,0.321l0.255,0.321l0.254,0.323l0.253,0.323l0.252,0.322l0.251,0.324l0.251,0.324l0.25,0.324l0.249,0.325l0.248,0.325l0.247,0.325l0.246,0.326l0.246,0.327l0.244,0.326l0.244,0.327l0.243,0.328l0.242,0.328l0.241,0.328l0.241,0.328l0.24,0.329l0.238,0.33l0.238,0.329l0.238,0.331l0.236,0.33l0.235,0.331l0.235,0.331l0.234,0.331l0.233,0.333l0.232,0.332l0.232,0.332l0.231,0.333l0.229,0.333l0.229,0.334l0.229,0.334l0.227,0.334l0.226,0.334l0.226,0.335l0.225,0.335l0.224,0.336l0.224,0.336l0.223,0.336l0.221,0.337l0.221,0.336l0.221,0.337l0.219,0.338l0.219,0.337l0.217,0.338l0.218,0.339l0.216,0.338l0.215,0.339l0.215,0.339l0.214,0.34l0.213,0.339l0.212,0.34l0.212,0.34l0.211,0.341l0.21,0.341l0.209,0.341l0.209,0.341l0.207,0.341l0.207,0.342l0.206,0.342l0.206,0.343l0.205,0.342l0.205,0.347l0.404,0.682l0.402,0.688l0.4,0.688l0.396,0.689l0.394,0.69l0.39,0.691l0.388,0.691l0.384,0.693l0.382,0.693l0.378,0.694l0.376,0.695l0.373,0.695l0.37,0.696l0.367,0.697l0.364,0.698l0.361,0.698l0.359,0.699l0.356,0.699l0.352,0.7l0.35,0.7l0.347,0.701l0.345,0.702l0.341,0.702l0.339,0.702l0.336,0.703l0.334,0.703l0.33,0.704l0.328,0.703l0.325,0.705l0.323,0.704l0.319,0.705l0.317,0.706l0.315,0.705l0.312,0.706l0.309,0.706l0.306,0.706l0.304,0.706l0.301,0.707l0.299,0.706l0.296,0.707l0.294,0.707l0.291,0.707l0.288,0.707l0.286,0.706l0.284,0.707l0.28,0.707l0.279,0.707l0.276,0.707l0.273,0.707l0.271,0.706l0.268,0.706l0.267,0.707l0.263,0.706l0.261,0.706l0.259,0.706l0.257,0.705l0.254,0.705l0.251,0.705l0.25,0.705l0.247,0.704l0.244,0.704l0.243,0.704l0.24,0.703l0.237,0.703l0.236,0.702l0.233,0.702l0.231,0.701l0.228,0.701l0.227,0.701l0.224,0.7l0.222,0.699l0.219,0.699l0.218,0.698l0.215,0.698l0.213,0.697l0.211,0.696l0.209,0.695l0.207,0.695l0.204,0.694l0.202,0.694l0.201,0.692l0.198,0.692l0.196,0.691l0.194,0.69l0.192,0.69l0.19,0.688l0.188,0.688l0.186,0.686l0.184,0.686l0.181,0.685l0.18,0.684l0.178,0.682l0.176,0.682l0.174,0.681l0.172,0.68l0.17,0.678l0.168,0.677l0.166,0.677l0.165,0.675l0.162,0.674l0.161,0.673l0.158,0.671l0.157,0.671l0.155,0.669l0.153,0.668l0.151,0.666l0.15,0.665l0.147,0.664l0.146,0.663l0.144,0.661l0.142,0.66l0.141,0.658l0.139,0.657l0.137,0.655l0.135,0.654l0.134,0.653l0.131,0.65l0.131,0.65l0.128,0.648l0.127,0.646l0.125,0.644l0.124,0.643l0.121,0.641l0.121,0.64l0.118,0.638l0.117,0.636l0.116,0.634l0.113,0.633l0.113,0.631l0.11,0.629l0.109,0.627l0.108,0.626l0.106,0.623l0.105,0.622l0.103,0.62l0.101,0.617l0.1,0.616l0.099,0.614l0.097,0.612l0.095,0.61l0.095,0.608l0.092,0.606l0.092,0.603l0.09,0.602l0.088,0.6l0.087,0.597l0.086,0.595l0.084,0.593l0.083,0.591l0.082,0.589l0.08,0.586l0.079,0.584l0.078,0.582l0.076,0.579l0.075,0.577l0.074,0.575l0.073,0.573l0.071,0.57l0.07,0.567l0.069,0.565l0.067,0.563l0.067,0.561l0.065,0.557l0.064,0.555l0.062,0.553l0.062,0.55l0.06,0.548l0.059,0.545l0.059,0.542l0.056,0.54l0.056,0.537l0.055,0.534l0.054,0.532l0.052,0.528l0.052,0.527l0.05,0.523l0.049,0.52l0.048,0.518l0.048,0.518l0.091,1.018l0.087,1.01l0.084,0.998l0.079,0.985l0.076,0.974l0.072,0.961l0.069,0.95l0.065,0.936l0.061,0.924l0.058,0.91l0.055,0.898l0.052,0.884l0.049,0.871l0.045,0.857l0.043,0.843l0.04,0.83l0.037,0.815l0.034,0.801l0.032,0.786l0.03,0.772l0.027,0.757l0.024,0.742l0.023,0.726l0.02,0.712l0.018,0.696l0.016,0.68l0.014,0.664l0.012,0.649l0.011,0.632l0.009,0.616l0.007,0.599l0.006,0.583l0.005,0.566l0.003,0.549l0.002,0.531l0.001,0.514l-0.001,0.497l-0.001,0.479l-0.002,0.461l-0.003,0.443l-0.004,0.425l-0.005,0.406l-0.005,0.392l-0.011,0.715l-0.013,0.643l-0.013,0.565l-0.014,0.487l-0.013,0.406l-0.011,0.323l-0.009,0.244l0.003,-0.067l0.009,0.422l0.016,0.8l0.021,1.059l0.023,1.286l0.026,1.48l0.027,1.641l0.026,1.767l0.012,0.923l0.012,0.941l0.011,0.957l0.011,0.968l0.009,0.976l0.008,0.979l0.006,0.958l103.541,0l0.112,-1.022l0.122,-1.136l0.119,-1.134l0.116,-1.132l0.113,-1.129l0.109,-1.127l0.107,-1.125l0.103,-1.122l0.1,-1.12l0.098,-1.118l0.094,-1.115l0.091,-1.114l0.088,-1.11l0.085,-1.109l0.082,-1.106l0.079,-1.104l0.076,-1.101l0.072,-1.099l0.07,-1.097l0.067,-1.094l0.064,-1.092l0.06,-1.09l0.058,-1.088l0.055,-1.085l0.052,-1.083l0.048,-1.08l0.046,-1.079l0.043,-1.075l0.04,-1.074l0.037,-1.071l0.034,-1.069l0.031,-1.067l0.028,-1.064l0.025,-1.062l0.022,-1.06l0.019,-1.057l0.017,-1.055l0.013,-1.053l0.011,-1.05l0.008,-1.049l0.004,-1.045l0.002,-1.044l-0.001,-1.041l-0.004,-1.039l-0.006,-1.037l-0.01,-1.034l-0.012,-1.032l-0.015,-1.03l-0.019,-1.027l-0.02,-1.025l-0.024,-1.023l-0.027,-1.02l-0.029,-1.018l-0.032,-1.016l-0.035,-1.014l-0.038,-1.011l-0.041,-1.009l-0.043,-1.007l-0.046,-1.004l-0.049,-1.002l-0.052,-1l-0.054,-0.997l-0.057,-0.996l-0.06,-0.993l-0.063,-0.99l-0.065,-0.989l-0.068,-0.986l-0.071,-0.983l-0.074,-0.982l-0.076,-0.979l-0.079,-0.977l-0.082,-0.974l-0.084,-0.973l-0.087,-0.97l-0.09,-0.967l-0.092,-0.966l-0.095,-0.963l-0.098,-0.961l-0.1,-0.959l-0.103,-0.956l-0.106,-0.954l-0.108,-0.952l-0.111,-0.949l-0.113,-0.947l-0.117,-0.945l-0.118,-0.943l-0.122,-0.94l-0.124,-0.938l-0.126,-0.936l-0.129,-0.934l-0.132,-0.931l-0.134,-0.929l-0.137,-0.927l-0.14,-0.925l-0.141,-0.922l-0.145,-0.92l-0.147,-0.917l-0.15,-0.916l-0.152,-0.913l-0.154,-0.911l-0.157,-0.909l-0.16,-0.906l-0.162,-0.904l-0.165,-0.902l-0.167,-0.9l-0.17,-0.897l-0.172,-0.895l-0.174,-0.893l-0.177,-0.891l-0.18,-0.888l-0.182,-0.886l-0.184,-0.884l-0.187,-0.881l-0.19,-0.88l-0.191,-0.877l-0.194,-0.875l-0.197,-0.872l-0.199,-0.871l-0.201,-0.868l-0.204,-0.866l-0.206,-0.863l-0.209,-0.862l-0.211,-0.859l-0.213,-0.857l-0.216,-0.854l-0.218,-0.853l-0.221,-0.85l-0.222,-0.848l-0.226,-0.846l-0.227,-0.843l-0.23,-0.841l-0.232,-0.84l-0.234,-0.836l-0.237,-0.835l-0.239,-0.832l-0.242,-0.83l-0.243,-0.828l-0.246,-0.826l-0.249,-0.824l-0.25,-0.821l-0.253,-0.819l-0.255,-0.817l-0.258,-0.814l-0.259,-0.812l-0.262,-0.811l-0.264,-0.808l-0.266,-0.805l-0.269,-0.804l-0.271,-0.801l-0.273,-0.799l-0.275,-0.797l-0.278,-0.795l-0.279,-0.792l-0.282,-0.791l-0.284,-0.788l-0.286,-0.785l-0.289,-0.784l-0.291,-0.782l-0.292,-0.779l-0.295,-0.777l-0.297,-0.775l-0.3,-0.773l-0.301,-0.77l-0.303,-0.768l-0.306,-0.766l-0.308,-0.764l-0.31,-0.762l-0.312,-0.76l-0.314,-0.757l-0.316,-0.755l-0.319,-0.753l-0.32,-0.751l-0.323,-0.748l-0.324,-0.747l-0.327,-0.744l-0.329,-0.742l-0.33,-0.74l-0.333,-0.738l-0.335,-0.735l-0.337,-0.733l-0.339,-0.732l-0.341,-0.729l-0.343,-0.726l-0.345,-0.725l-0.348,-0.723l-0.349,-0.72l-0.351,-0.718l-0.353,-0.716l-0.355,-0.714l-0.357,-0.711l-0.359,-0.71l-0.362,-0.707l-0.363,-0.706l-0.365,-0.703l-0.367,-0.7l-0.369,-0.699l-0.371,-0.697l-0.372,-0.694l-0.375,-0.692l-0.377,-0.69l-0.379,-0.688l-0.38,-0.686l-0.383,-0.684l-0.384,-0.681l-0.386,-0.68l-0.389,-0.677l-0.39,-0.675l-0.392,-0.673l-0.394,-0.671l-0.396,-0.668l-0.397,-0.667l-0.4,-0.664l-0.401,-0.662l-0.403,-0.66l-0.405,-0.658l-0.407,-0.656l-0.409,-0.654l-0.411,-0.651l-0.412,-0.65l-0.414,-0.647l-0.417,-0.645l-0.417,-0.643l-0.42,-0.641l-0.422,-0.639l-0.423,-0.636l-0.425,-0.635l-0.427,-0.633l-0.429,-0.63l-0.43,-0.628l-0.432,-0.626l-0.434,-0.624l-0.436,-0.622l-0.437,-0.619l-0.44,-0.618l-0.441,-0.615l-0.442,-0.614l-0.445,-0.611l-0.446,-0.609l-0.448,-0.607l-0.449,-0.605l-0.452,-0.603l-0.453,-0.601l-0.454,-0.598l-0.457,-0.597l-0.458,-0.594l-0.46,-0.592l-0.461,-0.591l-0.463,-0.588l-0.465,-0.586l-0.467,-0.584l-0.468,-0.581l-0.47,-0.58l-0.471,-0.578l-0.473,-0.575l-0.475,-0.574l-0.476,-0.571l-0.478,-0.569l-0.48,-0.567l-0.481,-0.565l-0.483,-0.563l-0.484,-0.561l-0.486,-0.559l-0.488,-0.557l-0.489,-0.554l-0.491,-0.553l-0.492,-0.55l-0.494,-0.548l-0.495,-0.547l-0.498,-0.544l-0.498,-0.542l-0.5,-0.54l-0.502,-0.538l-0.503,-0.536l-0.505,-0.534l-0.506,-0.531l-0.508,-0.53l-0.509,-0.528l-0.511,-0.525l-0.513,-0.523l-0.514,-0.522l-0.515,-0.519l-0.517,-0.517l-0.518,-0.515l-0.52,-0.513l-0.521,-0.511l-0.523,-0.509l-0.524,-0.507l-0.526,-0.505l-0.527,-0.503l-0.529,-0.5l-0.53,-0.499l-0.532,-0.497l-0.532,-0.494l-0.535,-0.492l-0.536,-0.491l-0.537,-0.488l-0.538,-0.486l-0.54,-0.484l-0.542,-0.482l-0.543,-0.48l-0.544,-0.478l-0.546,-0.476l-0.547,-0.474l-0.548,-0.472l-0.55,-0.47l-0.551,-0.467l-0.552,-0.466l-0.554,-0.464l-0.555,-0.461l-0.557,-0.46l-0.558,-0.457l-0.559,-0.455l-0.56,-0.454l-0.562,-0.451l-0.563,-0.449l-0.565,-0.448l-0.566,-0.445l-0.567,-0.443l-0.568,-0.441l-0.57,-0.439l-0.571,-0.437l-0.572,-0.435l-0.574,-0.433l-0.575,-0.43l-0.576,-0.429l-0.577,-0.427l-0.579,-0.425l-0.579,-0.422l-0.581,-0.421l-0.583,-0.418l-0.583,-0.417l-0.585,-0.414l-0.586,-0.413l-0.587,-0.41l-0.589,-0.409l-0.589,-0.406l-0.591,-0.404l-0.592,-0.402l-0.594,-0.401l-0.594,-0.398l-0.596,-0.396l-0.596,-0.394l-0.598,-0.392l-0.599,-0.39l-0.601,-0.388l-0.601,-0.386l-0.603,-0.384l-0.603,-0.382l-0.605,-0.38l-0.606,-0.378l-0.607,-0.375l-0.609,-0.374l-0.609,-0.372l-0.61,-0.37l-0.612,-0.367l-0.613,-0.366l-0.614,-0.364l-0.614,-0.361l-0.616,-0.36l-0.617,-0.357l-0.618,-0.356l-0.62,-0.353l-0.62,-0.352l-0.621,-0.349l-0.622,-0.347l-0.624,-0.346l-0.624,-0.343l-0.626,-0.341l-0.626,-0.34l-0.628,-0.337l-0.628,-0.335l-0.63,-0.334l-0.63,-0.331l-0.632,-0.329l-0.632,-0.327l-0.634,-0.325l-0.635,-0.323l-0.635,-0.321l-0.636,-0.319l-0.638,-0.317l-0.638,-0.315l-0.64,-0.313l-0.64,-0.311l-0.641,-0.309l-0.643,-0.307l-0.643,-0.305l-0.644,-0.303l-0.645,-0.301l-0.646,-0.299l-0.647,-0.297l-0.647,-0.295l-0.649,-0.292l-0.65,-0.291l-0.65,-0.289l-0.651,-0.287l-0.653,-0.284l-0.653,-0.283l-0.654,-0.281l-0.655,-0.279l-0.655,-0.276l-0.657,-0.275l-0.657,-0.273l-0.659,-0.27l-0.659,-0.269l-0.66,-0.267l-0.66,-0.264l-0.662,-0.263l-0.662,-0.26l-0.663,-0.259l-0.665,-0.256l-0.664,-0.255l-0.666,-0.252l-0.666,-0.251l-0.667,-0.248l-0.668,-0.247l-0.669,-0.244l-0.67,-0.243l-0.67,-0.24l-0.671,-0.239l-0.672,-0.236l-0.672,-0.235l-0.673,-0.232l-0.674,-0.231l-0.675,-0.228l-0.675,-0.226l-0.676,-0.225l-0.677,-0.222l-0.678,-0.221l-0.678,-0.218l-0.679,-0.216l-0.68,-0.215l-0.68,-0.212l-0.681,-0.21l-0.681,-0.209l-0.683,-0.206l-0.683,-0.204l-0.683,-0.203l-0.684,-0.2l-0.685,-0.198l-0.686,-0.197l-0.686,-0.194l-0.687,-0.192l-0.687,-0.19l-0.688,-0.189l-0.689,-0.186l-0.689,-0.184l-0.69,-0.183l-0.69,-0.18l-0.691,-0.178l-0.692,-0.176l-0.692,-0.175l-0.693,-0.172l-0.693,-0.17l-0.694,-0.169l-0.694,-0.166l-0.695,-0.164l-0.696,-0.162l-0.696,-0.161l-0.696,-0.158l-0.697,-0.156l-0.698,-0.155l-0.698,-0.152l-0.699,-0.15l-0.699,-0.148l-0.699,-0.147l-0.7,-0.144l-0.701,-0.142l-0.701,-0.141l-0.701,-0.138l-0.702,-0.136l-0.703,-0.135l-0.703,-0.132l-0.703,-0.13l-0.704,-0.129l-0.704,-0.126l-0.705,-0.124l-0.705,-0.123l-0.705,-0.12l-0.706,-0.118l-0.706,-0.117l-0.707,-0.114l-0.707,-0.113l-0.708,-0.11l-0.708,-0.108l-0.708,-0.107l-0.708,-0.104l-0.709,-0.103l-0.71,-0.1l-0.709,-0.099l-0.711,-0.096l-0.71,-0.095l-0.711,-0.092l-0.711,-0.09l-0.711,-0.089l-0.712,-0.087l-0.712,-0.084l-0.712,-0.083l-0.713,-0.08l-0.713,-0.079l-0.713,-0.076l-0.714,-0.075l-0.713,-0.073l-0.715,-0.07l-0.714,-0.069l-0.715,-0.067l-0.714,-0.064l-0.715,-0.063l-0.716,-0.061l-0.715,-0.058l-0.716,-0.057l-0.716,-0.055l-0.717,-0.053l-0.716,-0.05l-0.717,-0.049l-0.717,-0.047l-0.717,-0.045l-0.717,-0.043l-0.718,-0.041l-0.717,-0.039l-0.718,-0.037l-0.718,-0.034l-0.719,-0.033l-0.718,-0.031l-0.718,-0.029l-0.719,-0.027l-0.719,-0.026l-0.719,-0.023l-0.719,-0.021l-0.719,-0.019l-0.719,-0.017l-0.72,-0.015l-0.719,-0.013l-0.72,-0.012l-0.72,-0.009l-0.719,-0.007l-0.72,-0.006l-0.72,-0.003l-0.72,-0.001l-0.72,0Z" style="fill:rgb(204,204,204);"/>
    <path d="M179.976,59.718c-55.424,27.376 -97.461,83.477 -99.166,166.703c13.879,-86.234 63.744,-127.332 117.384,-133.571c14.861,-10.383 31.497,-16.977 48.819,-19.958c83.576,-14.341 182.116,55.627 163.551,188.584c-11.063,0 -47.534,-0.406 -53.655,-0.576c-0.732,9.51 -2.563,18.858 -4.809,29.012l104.563,0c19.053,-216.932 -159.006,-288.308 -276.687,-230.194Z" style="fill:rgb(0,85,164);fill-rule:nonzero;"/>
    <path d="M247.013,72.892c-17.322,2.981 -33.958,9.575 -48.819,19.958c-29.207,20.444 -51.403,55.578 -57.67,106.898c18.991,-128.285 205.752,-108.168 179.934,61.163c9.94,0 23.084,-0.079 36.451,-0.011c6.121,0.011 42.592,0.576 53.655,0.576c18.565,-132.957 -79.975,-202.925 -163.551,-188.584Z" style="fill:rgb(227,26,35);fill-rule:nonzero;"/>
</svg>
