<?xml version="1.0" encoding="UTF-8" standalone="no"?>
<!DOCTYPE svg PUBLIC "-//W3C//DTD SVG 1.1//EN" "http://www.w3.org/Graphics/SVG/1.1/DTD/svg11.dtd">
<svg width="400px" height="356px" version="1.1" xmlns="http://www.w3.org/2000/svg" xmlns:xlink="http://www.w3.org/1999/xlink" xml:space="preserve" xmlns:serif="http://www.serif.com/" style="fill-rule:evenodd;clip-rule:evenodd;stroke-linejoin:round;stroke-miterlimit:2;">
    <g id="Монтажная-область1" serif:id="Монтажная область1" transform="matrix(1,0,0,0.89,0,0)">
        <rect x="0" y="0" width="400" height="400" style="fill:none;"/>
        <g transform="matrix(0.787408,0,0,0.885838,0,0)">
            <g transform="matrix(4.16667,0,0,4.16667,-171.867,-149.025)">
                <path d="M128.328,102.608C128.328,103.092 127.928,103.503 127.443,103.503L113.744,103.495C113.26,103.495 112.858,103.092 112.858,102.608L112.858,94.706C112.858,94.226 113.26,93.825 113.744,93.825L127.443,93.825C127.928,93.825 128.328,94.226 128.328,94.706L128.328,102.608Z" style="fill:url(#_Radial1);"/>
            </g>
            <g transform="matrix(4.16667,0,0,4.16667,-171.867,-149.025)">
                <path d="M116.715,121.958C116.715,122.444 116.313,122.85 115.829,122.85L102.13,122.846C101.644,122.846 101.242,122.444 101.242,121.958L101.242,114.055C101.242,113.574 101.644,113.174 102.13,113.174L115.829,113.174C116.313,113.174 116.715,113.574 116.715,114.055L116.715,121.958Z" style="fill:url(#_Radial2);"/>
            </g>
            <g transform="matrix(4.16667,0,0,4.16667,-171.867,-149.025)">
                <path d="M130.263,133.561C130.263,134.048 129.862,134.452 129.377,134.452L115.68,134.448C115.192,134.448 114.794,134.048 114.794,133.561L114.794,125.657C114.794,125.177 115.192,124.778 115.68,124.778L129.377,124.778C129.862,124.778 130.263,125.177 130.263,125.657L130.263,133.561Z" style="fill:url(#_Radial3);"/>
            </g>
            <g transform="matrix(4.16667,0,0,4.16667,-171.867,-149.025)">
                <path d="M85.752,129.706C85.752,130.192 85.351,130.6 84.863,130.6L71.164,130.593C70.681,130.593 70.281,130.192 70.281,129.706L70.281,121.804C70.281,121.323 70.681,120.924 71.164,120.924L84.863,120.924C85.351,120.924 85.752,121.323 85.752,121.804L85.752,129.706Z" style="fill:url(#_Radial4);"/>
            </g>
            <g transform="matrix(4.16667,0,0,4.16667,-171.867,-149.025)">
                <path d="M68.338,114.221C68.338,114.706 67.938,115.114 67.453,115.114L53.753,115.108C53.268,115.108 52.868,114.706 52.868,114.221L52.868,106.317C52.868,105.837 53.268,105.438 53.753,105.438L67.453,105.438C67.938,105.438 68.338,105.837 68.338,106.317L68.338,114.221Z" style="fill:url(#_Radial5);"/>
            </g>
            <g transform="matrix(4.16667,0,0,4.16667,-171.867,-149.025)">
                <path d="M99.301,87.128C99.301,87.613 98.899,88.021 98.416,88.021L84.717,88.015C84.231,88.015 83.829,87.613 83.829,87.128L83.829,79.226C83.829,78.744 84.231,78.346 84.717,78.346L98.416,78.346C98.899,78.346 99.301,78.744 99.301,79.226L99.301,87.128Z" style="fill:url(#_Radial6);"/>
            </g>
            <g transform="matrix(4.16667,0,0,4.16667,-171.867,-149.025)">
                <path d="M85.752,75.517C85.752,76.002 85.351,76.411 84.863,76.411L71.164,76.404C70.681,76.404 70.281,76.002 70.281,75.517L70.281,67.614C70.281,67.133 70.681,66.733 71.164,66.733L84.863,66.733C85.351,66.733 85.752,67.133 85.752,67.614L85.752,75.517Z" style="fill:url(#_Radial7);"/>
            </g>
            <g transform="matrix(4.16667,0,0,4.16667,-171.867,-149.025)">
                <path d="M68.338,60.036C68.338,60.523 67.938,60.929 67.453,60.929L53.755,60.924C53.268,60.924 52.868,60.523 52.868,60.036L52.868,52.133C52.868,51.653 53.268,51.253 53.755,51.253L67.453,51.253C67.938,51.253 68.338,51.653 68.338,52.133L68.338,60.036Z" style="fill:url(#_Radial8);"/>
            </g>
            <g transform="matrix(4.16667,0,0,4.16667,-171.867,-149.025)">
                <path d="M68.338,133.561C68.338,134.048 67.938,134.452 67.453,134.452L53.753,134.448C53.268,134.448 52.868,134.048 52.868,133.561L52.868,125.657C52.868,125.177 53.268,124.778 53.753,124.778L67.453,124.778C67.938,124.778 68.338,125.177 68.338,125.657L68.338,133.561Z" style="fill:url(#_Radial9);"/>
            </g>
            <g transform="matrix(4.16667,0,0,4.16667,-171.867,-149.025)">
                <path d="M130.267,75.53C130.267,76.015 129.869,76.417 129.384,76.417L121.473,76.417C120.99,76.417 120.589,76.015 120.589,75.53L120.589,71.489C120.589,71.004 120.99,70.604 121.473,70.604L129.384,70.604C129.869,70.604 130.267,71.004 130.267,71.489L130.267,75.53Z" style="fill:url(#_Radial10);"/>
            </g>
            <g transform="matrix(4.16667,0,0,4.16667,-171.867,-149.025)">
                <path d="M118.659,91.011C118.659,91.497 118.262,91.898 117.775,91.898L109.863,91.898C109.378,91.898 108.979,91.497 108.979,91.011L108.979,86.972C108.979,86.485 109.378,86.086 109.863,86.086L117.775,86.086C118.262,86.086 118.659,86.485 118.659,86.972L118.659,91.011Z" style="fill:url(#_Radial11);"/>
            </g>
            <g transform="matrix(4.16667,0,0,4.16667,-171.867,-149.025)">
                <path d="M139.946,98.75C139.946,99.235 139.55,99.638 139.065,99.638L131.151,99.638C130.667,99.638 130.267,99.235 130.267,98.75L130.267,94.712C130.267,94.225 130.667,93.824 131.151,93.824L139.065,93.824C139.55,93.824 139.946,94.225 139.946,94.712L139.946,98.75Z" style="fill:url(#_Radial12);"/>
            </g>
            <g transform="matrix(4.16667,0,0,4.16667,-171.867,-149.025)">
                <path d="M112.852,110.36C112.852,110.846 112.458,111.249 111.97,111.249L104.059,111.249C103.575,111.249 103.174,110.846 103.174,110.36L103.174,106.321C103.174,105.837 103.575,105.434 104.059,105.434L111.97,105.434C112.458,105.434 112.852,105.837 112.852,106.321L112.852,110.36Z" style="fill:url(#_Radial13);"/>
            </g>
            <g transform="matrix(4.16667,0,0,4.16667,-171.867,-149.025)">
                <path d="M112.852,129.702C112.852,130.187 112.458,130.589 111.97,130.589L104.059,130.589C103.575,130.589 103.174,130.187 103.174,129.702L103.174,125.662C103.174,125.177 103.575,124.778 104.059,124.778L111.97,124.778C112.458,124.778 112.852,125.177 112.852,125.662L112.852,129.702Z" style="fill:url(#_Radial14);"/>
            </g>
            <g transform="matrix(4.16667,0,0,4.16667,-171.867,-149.025)">
                <path d="M68.344,121.969C68.344,122.454 67.948,122.856 67.464,122.856L59.551,122.856C59.067,122.856 58.667,122.454 58.667,121.969L58.667,117.929C58.667,117.442 59.067,117.044 59.551,117.044L67.464,117.044C67.948,117.044 68.344,117.442 68.344,117.929L68.344,121.969Z" style="fill:url(#_Radial15);"/>
            </g>
            <g transform="matrix(4.16667,0,0,4.16667,-171.867,-149.025)">
                <path d="M101.244,94.88C101.244,95.364 100.848,95.767 100.362,95.767L92.45,95.767C91.964,95.767 91.566,95.364 91.566,94.88L91.566,90.841C91.566,90.355 91.964,89.955 92.45,89.955L100.362,89.955C100.848,89.955 101.244,90.355 101.244,90.841L101.244,94.88Z" style="fill:url(#_Radial16);"/>
            </g>
            <g transform="matrix(4.16667,0,0,4.16667,-171.867,-149.025)">
                <path d="M101.244,102.622C101.244,103.106 100.848,103.507 100.362,103.507L92.45,103.507C91.964,103.507 91.566,103.106 91.566,102.622L91.566,98.583C91.566,98.097 91.964,97.696 92.45,97.696L100.362,97.696C100.848,97.696 101.244,98.097 101.244,98.583L101.244,102.622Z" style="fill:url(#_Radial17);"/>
            </g>
            <g transform="matrix(4.16667,0,0,4.16667,-171.867,-149.025)">
                <path d="M89.636,102.622C89.636,103.106 89.239,103.507 88.754,103.507L80.841,103.507C80.356,103.507 79.957,103.106 79.957,102.622L79.957,98.583C79.957,98.097 80.356,97.696 80.841,97.696L88.754,97.696C89.239,97.696 89.636,98.097 89.636,98.583L89.636,102.622Z" style="fill:url(#_Radial18);"/>
            </g>
            <g transform="matrix(4.16667,0,0,4.16667,-171.867,-149.025)">
                <path d="M78.022,102.622C78.022,103.106 77.625,103.507 77.14,103.507L69.228,103.507C68.743,103.507 68.342,103.106 68.342,102.622L68.342,98.583C68.342,98.097 68.743,97.696 69.228,97.696L77.14,97.696C77.625,97.696 78.022,98.097 78.022,98.583L78.022,102.622Z" style="fill:url(#_Radial19);"/>
            </g>
            <g transform="matrix(4.16667,0,0,4.16667,-171.867,-149.025)">
                <path d="M56.736,83.271C56.736,83.757 56.34,84.157 55.855,84.157L47.941,84.157C47.458,84.157 47.057,83.757 47.057,83.271L47.057,79.232C47.057,78.744 47.458,78.346 47.941,78.346L55.855,78.346C56.34,78.346 56.736,78.744 56.736,79.232L56.736,83.271Z" style="fill:url(#_Radial20);"/>
            </g>
            <g transform="matrix(4.16667,0,0,4.16667,-171.867,-149.025)">
                <path d="M79.957,63.919C79.957,64.404 79.56,64.806 79.074,64.806L71.163,64.806C70.677,64.806 70.276,64.404 70.276,63.919L70.276,59.878C70.276,59.393 70.677,58.993 71.163,58.993L79.074,58.993C79.56,58.993 79.957,59.393 79.957,59.878L79.957,63.919Z" style="fill:url(#_Radial21);"/>
            </g>
            <g transform="matrix(4.16667,0,0,4.16667,-171.867,-149.025)">
                <path d="M50.926,60.039C50.926,60.525 50.529,60.925 50.045,60.925L42.131,60.925C41.647,60.925 41.248,60.525 41.248,60.039L41.248,56.001C41.248,55.515 41.647,55.114 42.131,55.114L50.045,55.114C50.529,55.114 50.926,55.515 50.926,56.001L50.926,60.039Z" style="fill:rgb(237,28,36);fill-rule:nonzero;"/>
            </g>
            <g transform="matrix(4.16667,0,0,4.16667,-171.867,-149.025)">
                <path d="M62.539,48.431C62.539,48.917 62.145,49.319 61.657,49.319L53.746,49.319C53.26,49.319 52.862,48.917 52.862,48.431L52.862,44.392C52.862,43.905 53.26,43.506 53.746,43.506L61.657,43.506C62.145,43.506 62.539,43.905 62.539,44.392L62.539,48.431Z" style="fill:url(#_Radial22);"/>
            </g>
            <g transform="matrix(4.16667,0,0,4.16667,-171.867,-149.025)">
                <path d="M50.926,46.503C50.926,46.987 50.529,47.39 50.045,47.39L42.131,47.39C41.647,47.39 41.248,46.987 41.248,46.503L41.248,42.462C41.248,41.978 41.647,41.577 42.131,41.577L50.045,41.577C50.529,41.577 50.926,41.978 50.926,42.462L50.926,46.503Z" style="fill:rgb(237,28,36);fill-rule:nonzero;"/>
            </g>
            <g transform="matrix(4.16667,0,0,4.16667,-171.867,-149.025)">
                <path d="M56.736,121.969C56.736,122.454 56.34,122.856 55.855,122.856L47.941,122.856C47.458,122.856 47.057,122.454 47.057,121.969L47.057,117.929C47.057,117.442 47.458,117.044 47.941,117.044L55.855,117.044C56.34,117.044 56.736,117.442 56.736,117.929L56.736,121.969Z" style="fill:url(#_Radial23);"/>
            </g>
            <g transform="matrix(4.16667,0,0,4.16667,-171.867,-149.025)">
                <path d="M124.464,110.36C124.464,110.846 124.069,111.249 123.582,111.249L115.67,111.249C115.187,111.249 114.787,110.846 114.787,110.36L114.787,106.321C114.787,105.837 115.187,105.434 115.67,105.434L123.582,105.434C124.069,105.434 124.464,105.837 124.464,106.321L124.464,110.36Z" style="fill:url(#_Radial24);"/>
            </g>
            <g transform="matrix(4.16667,0,0,4.16667,-171.867,-149.025)">
                <path d="M132.201,110.356C132.201,110.846 131.804,111.241 131.315,111.241L127.283,111.241C126.795,111.241 126.398,110.846 126.398,110.356L126.398,108.257C126.398,107.766 126.795,107.37 127.283,107.37L131.315,107.37C131.804,107.37 132.201,107.766 132.201,108.257L132.201,110.356Z" style="fill:url(#_Radial25);"/>
            </g>
            <g transform="matrix(4.16667,0,0,4.16667,-171.867,-149.025)">
                <path d="M110.916,102.616C110.916,103.106 110.52,103.503 110.03,103.503L105.995,103.503C105.507,103.503 105.111,103.106 105.111,102.616L105.111,100.517C105.111,100.026 105.507,99.632 105.995,99.632L110.03,99.632C110.52,99.632 110.916,100.026 110.916,100.517L110.916,102.616Z" style="fill:url(#_Radial26);"/>
            </g>
            <g transform="matrix(4.16667,0,0,4.16667,-171.867,-149.025)">
                <path d="M110.916,96.811C110.916,97.302 110.52,97.696 110.03,97.696L105.995,97.696C105.507,97.696 105.111,97.302 105.111,96.811L105.111,94.712C105.111,94.223 105.507,93.825 105.995,93.825L110.03,93.825C110.52,93.825 110.916,94.223 110.916,94.712L110.916,96.811Z" style="fill:url(#_Radial27);"/>
            </g>
            <g transform="matrix(4.16667,0,0,4.16667,-171.867,-149.025)">
                <path d="M118.659,83.265C118.659,83.755 118.261,84.15 117.771,84.15L113.736,84.15C113.25,84.15 112.854,83.755 112.854,83.265L112.854,81.165C112.854,80.677 113.25,80.28 113.736,80.28L117.771,80.28C118.261,80.28 118.659,80.677 118.659,81.165L118.659,83.265Z" style="fill:url(#_Radial28);"/>
            </g>
            <g transform="matrix(4.16667,0,0,4.16667,-171.867,-149.025)">
                <path d="M93.499,75.523C93.499,76.013 93.102,76.409 92.614,76.409L88.578,76.409C88.091,76.409 87.693,76.013 87.693,75.523L87.693,73.425C87.693,72.936 88.091,72.538 88.578,72.538L92.614,72.538C93.102,72.538 93.499,72.936 93.499,73.425L93.499,75.523Z" style="fill:url(#_Radial29);"/>
            </g>
            <g transform="matrix(4.16667,0,0,4.16667,-171.867,-149.025)">
                <path d="M76.082,56.171C76.082,56.661 75.686,57.058 75.196,57.058L71.161,57.058C70.673,57.058 70.276,56.661 70.276,56.171L70.276,54.073C70.276,53.584 70.673,53.189 71.161,53.189L75.196,53.189C75.686,53.189 76.082,53.584 76.082,54.073L76.082,56.171Z" style="fill:url(#_Radial30);"/>
            </g>
            <g transform="matrix(4.16667,0,0,4.16667,-171.867,-149.025)">
                <path d="M50.926,52.304C50.926,52.794 50.529,53.19 50.042,53.19L46.006,53.19C45.519,53.19 45.121,52.794 45.121,52.304L45.121,50.205C45.121,49.716 45.519,49.319 46.006,49.319L50.042,49.319C50.529,49.319 50.926,49.716 50.926,50.205L50.926,52.304Z" style="fill:rgb(237,28,36);fill-rule:nonzero;"/>
            </g>
            <g transform="matrix(4.16667,0,0,4.16667,-171.867,-149.025)">
                <path d="M47.053,38.75C47.053,39.241 46.656,39.636 46.167,39.636L42.131,39.636C41.647,39.636 41.25,39.241 41.25,38.75L41.25,36.652C41.25,36.163 41.647,35.766 42.131,35.766L46.167,35.766C46.656,35.766 47.053,36.163 47.053,36.652L47.053,38.75Z" style="fill:rgb(237,28,36);fill-rule:nonzero;"/>
            </g>
            <g transform="matrix(4.16667,0,0,4.16667,-171.867,-149.025)">
                <path d="M89.63,92.94C89.63,93.431 89.233,93.824 88.744,93.824L84.71,93.824C84.223,93.824 83.827,93.431 83.827,92.94L83.827,90.841C83.827,90.351 84.223,89.955 84.71,89.955L88.744,89.955C89.233,89.955 89.63,90.351 89.63,90.841L89.63,92.94Z" style="fill:url(#_Radial31);"/>
            </g>
            <g transform="matrix(4.16667,0,0,4.16667,-171.867,-149.025)">
                <path d="M66.408,102.616C66.408,103.106 66.012,103.503 65.522,103.503L61.486,103.503C61.002,103.503 60.603,103.106 60.603,102.616L60.603,100.517C60.603,100.026 61.002,99.632 61.486,99.632L65.522,99.632C66.012,99.632 66.408,100.026 66.408,100.517L66.408,102.616Z" style="fill:url(#_Radial32);"/>
            </g>
            <g transform="matrix(4.16667,0,0,4.16667,-171.867,-149.025)">
                <path d="M93.499,123.901C93.499,124.39 93.102,124.785 92.614,124.785L88.578,124.785C88.091,124.785 87.693,124.39 87.693,123.901L87.693,121.801C87.693,121.311 88.091,120.915 88.578,120.915L92.614,120.915C93.102,120.915 93.499,121.311 93.499,121.801L93.499,123.901Z" style="fill:url(#_Radial33);"/>
            </g>
            <g transform="matrix(4.16667,0,0,4.16667,-171.867,-149.025)">
                <path d="M101.25,108.424C101.25,108.914 100.854,109.309 100.364,109.309L96.329,109.309C95.843,109.309 95.446,108.914 95.446,108.424L95.446,106.324C95.446,105.834 95.843,105.438 96.329,105.438L100.364,105.438C100.854,105.438 101.25,105.834 101.25,106.324L101.25,108.424Z" style="fill:url(#_Radial34);"/>
            </g>
            <g transform="matrix(4.16667,0,0,4.16667,-171.867,-149.025)">
                <path d="M147.683,75.517C147.683,76.002 147.283,76.411 146.798,76.411L133.101,76.404C132.613,76.404 132.213,76.002 132.213,75.517L132.213,67.614C132.213,67.133 132.613,66.733 133.101,66.733L146.798,66.733C147.283,66.733 147.683,67.133 147.683,67.614L147.683,75.517Z" style="fill:url(#_Radial35);"/>
            </g>
            <g transform="matrix(4.16667,0,0,4.16667,-171.867,-149.025)">
                <path d="M134.137,121.965C134.137,122.45 133.743,122.85 133.253,122.85L119.545,122.85C119.057,122.85 118.659,122.45 118.659,121.965L118.659,114.059C118.659,113.572 119.057,113.174 119.545,113.174L133.253,113.174C133.743,113.174 134.137,113.572 134.137,114.059L134.137,121.965Z" style="fill:url(#_Radial36);"/>
            </g>
            <g transform="matrix(4.16667,0,0,4.16667,-171.867,-149.025)">
                <path d="M143.814,91.003C143.814,91.49 143.418,91.89 142.929,91.89L121.479,91.89C120.993,91.89 120.594,91.49 120.594,91.003L120.594,79.23C120.594,78.744 120.993,78.346 121.479,78.346L142.929,78.346C143.418,78.346 143.814,78.744 143.814,79.23L143.814,91.003Z" style="fill:url(#_Radial37);"/>
            </g>
            <g transform="matrix(4.16667,0,0,4.16667,-171.867,-149.025)">
                <path d="M93.501,118.096C93.501,118.584 93.104,118.981 92.614,118.981L71.164,118.981C70.679,118.981 70.278,118.584 70.278,118.096L70.278,106.324C70.278,105.837 70.679,105.438 71.164,105.438L92.614,105.438C93.104,105.438 93.501,105.837 93.501,106.324L93.501,118.096Z" style="fill:url(#_Radial38);"/>
            </g>
            <g transform="matrix(4.16667,0,0,4.16667,-171.867,-149.025)">
                <path d="M81.891,91.003C81.891,91.49 81.494,91.89 81.005,91.89L59.557,91.89C59.069,91.89 58.668,91.49 58.668,91.003L58.668,79.23C58.668,78.744 59.069,78.346 59.557,78.346L81.005,78.346C81.494,78.346 81.891,78.744 81.891,79.23L81.891,91.003Z" style="fill:url(#_Radial39);"/>
            </g>
            <g transform="matrix(4.16667,0,0,4.16667,-171.867,-149.025)">
                <path d="M68.344,75.523C68.344,76.01 67.95,76.411 67.46,76.411L46.01,76.411C45.525,76.411 45.125,76.01 45.125,75.523L45.125,63.749C45.125,63.265 45.525,62.865 46.01,62.865L67.46,62.865C67.95,62.865 68.344,63.265 68.344,63.749L68.344,75.523Z" style="fill:url(#_Radial40);"/>
            </g>
            <g transform="matrix(4.16667,0,0,4.16667,-171.867,-149.025)">
                <path d="M159.295,75.53C159.295,76.015 158.9,76.417 158.414,76.417L150.5,76.417C150.016,76.417 149.617,76.015 149.617,75.53L149.617,71.489C149.617,71.004 150.016,70.604 150.5,70.604L158.414,70.604C158.9,70.604 159.295,71.004 159.295,71.489L159.295,75.53Z" style="fill:rgb(237,28,36);fill-rule:nonzero;"/>
            </g>
            <g transform="matrix(4.16667,0,0,4.16667,-171.867,-149.025)">
                <path d="M155.427,83.271C155.427,83.757 155.031,84.157 154.544,84.157L146.633,84.157C146.15,84.157 145.75,83.757 145.75,83.271L145.75,79.232C145.75,78.744 146.15,78.346 146.633,78.346L154.544,78.346C155.031,78.346 155.427,78.744 155.427,79.232L155.427,83.271Z" style="fill:rgb(237,28,36);fill-rule:nonzero;"/>
            </g>
            <g transform="matrix(4.16667,0,0,4.16667,-171.867,-149.025)">
                <path d="M79.957,137.452C79.957,137.939 79.56,138.339 79.076,138.339L71.163,138.339C70.679,138.339 70.278,137.939 70.278,137.452L70.278,133.415C70.278,132.928 70.679,132.528 71.163,132.528L79.076,132.528C79.56,132.528 79.957,132.928 79.957,133.415L79.957,137.452Z" style="fill:rgb(237,28,36);fill-rule:nonzero;"/>
            </g>
            <g transform="matrix(4.16667,0,0,4.16667,-171.867,-149.025)">
                <path d="M112.852,137.452C112.852,137.939 112.458,138.339 111.97,138.339L104.059,138.339C103.575,138.339 103.174,137.939 103.174,137.452L103.174,133.415C103.174,132.928 103.575,132.528 104.059,132.528L111.97,132.528C112.458,132.528 112.852,132.928 112.852,133.415L112.852,137.452Z" style="fill:rgb(237,28,36);fill-rule:nonzero;"/>
            </g>
            <g transform="matrix(4.16667,0,0,4.16667,-171.867,-149.025)">
                <path d="M163.167,67.782C163.167,68.273 162.769,68.669 162.281,68.669L158.246,68.669C157.759,68.669 157.363,68.273 157.363,67.782L157.363,65.686C157.363,65.195 157.759,64.798 158.246,64.798L162.281,64.798C162.769,64.798 163.167,65.195 163.167,65.686L163.167,67.782Z" style="fill:rgb(237,28,36);fill-rule:nonzero;"/>
            </g>
            <g transform="matrix(4.16667,0,0,4.16667,-171.867,-149.025)">
                <path d="M155.421,67.782C155.421,68.273 155.024,68.669 154.535,68.669L150.5,68.669C150.015,68.669 149.617,68.273 149.617,67.782L149.617,65.686C149.617,65.195 150.015,64.798 150.5,64.798L154.535,64.798C155.024,64.798 155.421,65.195 155.421,65.686L155.421,67.782Z" style="fill:rgb(237,28,36);fill-rule:nonzero;"/>
            </g>
            <g transform="matrix(4.16667,0,0,4.16667,-171.867,-149.025)">
                <path d="M151.552,89.069C151.552,89.562 151.156,89.955 150.666,89.955L146.633,89.955C146.146,89.955 145.75,89.562 145.75,89.069L145.75,86.972C145.75,86.482 146.146,86.085 146.633,86.085L150.666,86.085C151.156,86.085 151.552,86.482 151.552,86.972L151.552,89.069Z" style="fill:rgb(237,28,36);fill-rule:nonzero;"/>
            </g>
            <g transform="matrix(4.16667,0,0,4.16667,-171.867,-149.025)">
                <path d="M120.589,139.381C120.589,139.873 120.195,140.27 119.704,140.27L115.67,140.27C115.183,140.27 114.787,139.873 114.787,139.381L114.787,137.285C114.787,136.793 115.183,136.395 115.67,136.395L119.704,136.395C120.195,136.395 120.589,136.793 120.589,137.285L120.589,139.381Z" style="fill:url(#_Radial41);"/>
            </g>
            <g transform="matrix(4.16667,0,0,4.16667,-171.867,-149.025)">
                <path d="M112.85,143.255C112.85,143.745 112.454,144.138 111.966,144.138L107.931,144.138C107.444,144.138 107.047,143.745 107.047,143.255L107.047,141.153C107.047,140.667 107.444,140.27 107.931,140.27L111.966,140.27C112.454,140.27 112.85,140.667 112.85,141.153L112.85,143.255Z" style="fill:rgb(237,28,36);fill-rule:nonzero;"/>
            </g>
            <g transform="matrix(4.16667,0,0,4.16667,-171.867,-149.025)">
                <path d="M68.342,139.381C68.342,139.871 67.948,140.265 67.459,140.265L63.423,140.265C62.938,140.265 62.539,139.871 62.539,139.381L62.539,137.283C62.539,136.791 62.938,136.395 63.423,136.395L67.459,136.395C67.948,136.395 68.342,136.791 68.342,137.283L68.342,139.381Z" style="fill:rgb(237,28,36);fill-rule:nonzero;"/>
            </g>
        </g>
    </g>
    <defs>
        <radialGradient id="_Radial1" cx="0" cy="0" r="1" gradientUnits="userSpaceOnUse" gradientTransform="matrix(61.8148,0,0,61.8148,104.761,89.4884)"><stop offset="0" style="stop-color:rgb(0,192,243);stop-opacity:1"/><stop offset="1" style="stop-color:rgb(0,71,141);stop-opacity:1"/></radialGradient>
        <radialGradient id="_Radial2" cx="0" cy="0" r="1" gradientUnits="userSpaceOnUse" gradientTransform="matrix(61.8133,0,0,61.8133,104.761,89.4889)"><stop offset="0" style="stop-color:rgb(0,192,243);stop-opacity:1"/><stop offset="1" style="stop-color:rgb(0,71,141);stop-opacity:1"/></radialGradient>
        <radialGradient id="_Radial3" cx="0" cy="0" r="1" gradientUnits="userSpaceOnUse" gradientTransform="matrix(61.799,0,0,61.799,104.764,89.4992)"><stop offset="0" style="stop-color:rgb(0,192,243);stop-opacity:1"/><stop offset="1" style="stop-color:rgb(0,71,141);stop-opacity:1"/></radialGradient>
        <radialGradient id="_Radial4" cx="0" cy="0" r="1" gradientUnits="userSpaceOnUse" gradientTransform="matrix(61.8093,0,0,61.8093,104.762,89.4923)"><stop offset="0" style="stop-color:rgb(0,192,243);stop-opacity:1"/><stop offset="1" style="stop-color:rgb(0,71,141);stop-opacity:1"/></radialGradient>
        <radialGradient id="_Radial5" cx="0" cy="0" r="1" gradientUnits="userSpaceOnUse" gradientTransform="matrix(61.8089,0,0,61.8089,104.758,89.4899)"><stop offset="0" style="stop-color:rgb(0,192,243);stop-opacity:1"/><stop offset="1" style="stop-color:rgb(0,71,141);stop-opacity:1"/></radialGradient>
        <radialGradient id="_Radial6" cx="0" cy="0" r="1" gradientUnits="userSpaceOnUse" gradientTransform="matrix(61.8213,0,0,61.8213,104.763,89.4889)"><stop offset="0" style="stop-color:rgb(0,192,243);stop-opacity:1"/><stop offset="1" style="stop-color:rgb(0,71,141);stop-opacity:1"/></radialGradient>
        <radialGradient id="_Radial7" cx="0" cy="0" r="1" gradientUnits="userSpaceOnUse" gradientTransform="matrix(61.8159,0,0,61.8159,104.762,89.4928)"><stop offset="0" style="stop-color:rgb(0,192,243);stop-opacity:1"/><stop offset="1" style="stop-color:rgb(0,71,141);stop-opacity:1"/></radialGradient>
        <radialGradient id="_Radial8" cx="0" cy="0" r="1" gradientUnits="userSpaceOnUse" gradientTransform="matrix(61.8101,0,0,61.8101,104.758,89.4894)"><stop offset="0" style="stop-color:rgb(0,192,243);stop-opacity:1"/><stop offset="1" style="stop-color:rgb(0,71,141);stop-opacity:1"/></radialGradient>
        <radialGradient id="_Radial9" cx="0" cy="0" r="1" gradientUnits="userSpaceOnUse" gradientTransform="matrix(61.8013,0,0,61.8013,104.758,89.4992)"><stop offset="0" style="stop-color:rgb(0,192,243);stop-opacity:1"/><stop offset="1" style="stop-color:rgb(0,71,141);stop-opacity:1"/></radialGradient>
        <radialGradient id="_Radial10" cx="0" cy="0" r="1" gradientUnits="userSpaceOnUse" gradientTransform="matrix(61.8118,0,0,61.8118,104.763,89.4918)"><stop offset="0" style="stop-color:rgb(0,192,243);stop-opacity:1"/><stop offset="1" style="stop-color:rgb(0,71,141);stop-opacity:1"/></radialGradient>
        <radialGradient id="_Radial11" cx="0" cy="0" r="1" gradientUnits="userSpaceOnUse" gradientTransform="matrix(61.8174,0,0,61.8174,104.762,89.4894)"><stop offset="0" style="stop-color:rgb(0,192,243);stop-opacity:1"/><stop offset="1" style="stop-color:rgb(0,71,141);stop-opacity:1"/></radialGradient>
        <radialGradient id="_Radial12" cx="0" cy="0" r="1" gradientUnits="userSpaceOnUse" gradientTransform="matrix(61.8197,0,0,61.8197,104.759,89.4879)"><stop offset="0" style="stop-color:rgb(0,192,243);stop-opacity:1"/><stop offset="1" style="stop-color:rgb(0,71,141);stop-opacity:1"/></radialGradient>
        <radialGradient id="_Radial13" cx="0" cy="0" r="1" gradientUnits="userSpaceOnUse" gradientTransform="matrix(61.8272,0,0,61.8272,104.762,89.4835)"><stop offset="0" style="stop-color:rgb(0,192,243);stop-opacity:1"/><stop offset="1" style="stop-color:rgb(0,71,141);stop-opacity:1"/></radialGradient>
        <radialGradient id="_Radial14" cx="0" cy="0" r="1" gradientUnits="userSpaceOnUse" gradientTransform="matrix(61.7888,0,0,61.7888,104.762,89.504)"><stop offset="0" style="stop-color:rgb(0,192,243);stop-opacity:1"/><stop offset="1" style="stop-color:rgb(0,71,141);stop-opacity:1"/></radialGradient>
        <radialGradient id="_Radial15" cx="0" cy="0" r="1" gradientUnits="userSpaceOnUse" gradientTransform="matrix(61.8104,0,0,61.8104,104.757,89.4879)"><stop offset="0" style="stop-color:rgb(0,192,243);stop-opacity:1"/><stop offset="1" style="stop-color:rgb(0,71,141);stop-opacity:1"/></radialGradient>
        <radialGradient id="_Radial16" cx="0" cy="0" r="1" gradientUnits="userSpaceOnUse" gradientTransform="matrix(61.8075,0,0,61.8075,104.761,89.4899)"><stop offset="0" style="stop-color:rgb(0,192,243);stop-opacity:1"/><stop offset="1" style="stop-color:rgb(0,71,141);stop-opacity:1"/></radialGradient>
        <radialGradient id="_Radial17" cx="0" cy="0" r="1" gradientUnits="userSpaceOnUse" gradientTransform="matrix(61.8061,0,0,61.8061,104.761,89.4904)"><stop offset="0" style="stop-color:rgb(0,192,243);stop-opacity:1"/><stop offset="1" style="stop-color:rgb(0,71,141);stop-opacity:1"/></radialGradient>
        <radialGradient id="_Radial18" cx="0" cy="0" r="1" gradientUnits="userSpaceOnUse" gradientTransform="matrix(61.8133,0,0,61.8133,104.764,89.4904)"><stop offset="0" style="stop-color:rgb(0,192,243);stop-opacity:1"/><stop offset="1" style="stop-color:rgb(0,71,141);stop-opacity:1"/></radialGradient>
        <radialGradient id="_Radial19" cx="0" cy="0" r="1" gradientUnits="userSpaceOnUse" gradientTransform="matrix(61.8185,0,0,61.8185,104.766,89.4904)"><stop offset="0" style="stop-color:rgb(0,192,243);stop-opacity:1"/><stop offset="1" style="stop-color:rgb(0,71,141);stop-opacity:1"/></radialGradient>
        <radialGradient id="_Radial20" cx="0" cy="0" r="1" gradientUnits="userSpaceOnUse" gradientTransform="matrix(61.8182,0,0,61.8182,104.766,89.4899)"><stop offset="0" style="stop-color:rgb(0,192,243);stop-opacity:1"/><stop offset="1" style="stop-color:rgb(0,71,141);stop-opacity:1"/></radialGradient>
        <radialGradient id="_Radial21" cx="0" cy="0" r="1" gradientUnits="userSpaceOnUse" gradientTransform="matrix(61.8211,0,0,61.8211,104.768,89.4909)"><stop offset="0" style="stop-color:rgb(0,192,243);stop-opacity:1"/><stop offset="1" style="stop-color:rgb(0,71,141);stop-opacity:1"/></radialGradient>
        <radialGradient id="_Radial22" cx="0" cy="0" r="1" gradientUnits="userSpaceOnUse" gradientTransform="matrix(61.8161,0,0,61.8161,104.757,89.4992)"><stop offset="0" style="stop-color:rgb(0,192,243);stop-opacity:1"/><stop offset="1" style="stop-color:rgb(0,71,141);stop-opacity:1"/></radialGradient>
        <radialGradient id="_Radial23" cx="0" cy="0" r="1" gradientUnits="userSpaceOnUse" gradientTransform="matrix(61.8175,0,0,61.8175,104.766,89.4879)"><stop offset="0" style="stop-color:rgb(0,192,243);stop-opacity:1"/><stop offset="1" style="stop-color:rgb(0,71,141);stop-opacity:1"/></radialGradient>
        <radialGradient id="_Radial24" cx="0" cy="0" r="1" gradientUnits="userSpaceOnUse" gradientTransform="matrix(61.8193,0,0,61.8193,104.763,89.4835)"><stop offset="0" style="stop-color:rgb(0,192,243);stop-opacity:1"/><stop offset="1" style="stop-color:rgb(0,71,141);stop-opacity:1"/></radialGradient>
        <radialGradient id="_Radial25" cx="0" cy="0" r="1" gradientUnits="userSpaceOnUse" gradientTransform="matrix(61.8139,0,0,61.8139,104.766,89.4816)"><stop offset="0" style="stop-color:rgb(0,192,243);stop-opacity:1"/><stop offset="1" style="stop-color:rgb(0,71,141);stop-opacity:1"/></radialGradient>
        <radialGradient id="_Radial26" cx="0" cy="0" r="1" gradientUnits="userSpaceOnUse" gradientTransform="matrix(61.8257,0,0,61.8257,104.761,89.4879)"><stop offset="0" style="stop-color:rgb(0,192,243);stop-opacity:1"/><stop offset="1" style="stop-color:rgb(0,71,141);stop-opacity:1"/></radialGradient>
        <radialGradient id="_Radial27" cx="0" cy="0" r="1" gradientUnits="userSpaceOnUse" gradientTransform="matrix(61.826,0,0,61.826,104.761,89.4879)"><stop offset="0" style="stop-color:rgb(0,192,243);stop-opacity:1"/><stop offset="1" style="stop-color:rgb(0,71,141);stop-opacity:1"/></radialGradient>
        <radialGradient id="_Radial28" cx="0" cy="0" r="1" gradientUnits="userSpaceOnUse" gradientTransform="matrix(61.8097,0,0,61.8097,104.763,89.4879)"><stop offset="0" style="stop-color:rgb(0,192,243);stop-opacity:1"/><stop offset="1" style="stop-color:rgb(0,71,141);stop-opacity:1"/></radialGradient>
        <radialGradient id="_Radial29" cx="0" cy="0" r="1" gradientUnits="userSpaceOnUse" gradientTransform="matrix(61.8281,0,0,61.8281,104.766,89.4923)"><stop offset="0" style="stop-color:rgb(0,192,243);stop-opacity:1"/><stop offset="1" style="stop-color:rgb(0,71,141);stop-opacity:1"/></radialGradient>
        <radialGradient id="_Radial30" cx="0" cy="0" r="1" gradientUnits="userSpaceOnUse" gradientTransform="matrix(61.8068,0,0,61.8068,104.766,89.4801)"><stop offset="0" style="stop-color:rgb(0,192,243);stop-opacity:1"/><stop offset="1" style="stop-color:rgb(0,71,141);stop-opacity:1"/></radialGradient>
        <radialGradient id="_Radial31" cx="0" cy="0" r="1" gradientUnits="userSpaceOnUse" gradientTransform="matrix(61.7984,0,0,61.7984,104.757,89.4894)"><stop offset="0" style="stop-color:rgb(0,192,243);stop-opacity:1"/><stop offset="1" style="stop-color:rgb(0,71,141);stop-opacity:1"/></radialGradient>
        <radialGradient id="_Radial32" cx="0" cy="0" r="1" gradientUnits="userSpaceOnUse" gradientTransform="matrix(61.8188,0,0,61.8188,104.765,89.4874)"><stop offset="0" style="stop-color:rgb(0,192,243);stop-opacity:1"/><stop offset="1" style="stop-color:rgb(0,71,141);stop-opacity:1"/></radialGradient>
        <radialGradient id="_Radial33" cx="0" cy="0" r="1" gradientUnits="userSpaceOnUse" gradientTransform="matrix(61.8216,0,0,61.8216,104.766,89.4845)"><stop offset="0" style="stop-color:rgb(0,192,243);stop-opacity:1"/><stop offset="1" style="stop-color:rgb(0,71,141);stop-opacity:1"/></radialGradient>
        <radialGradient id="_Radial34" cx="0" cy="0" r="1" gradientUnits="userSpaceOnUse" gradientTransform="matrix(61.8252,0,0,61.8252,104.761,89.486)"><stop offset="0" style="stop-color:rgb(0,192,243);stop-opacity:1"/><stop offset="1" style="stop-color:rgb(0,71,141);stop-opacity:1"/></radialGradient>
        <radialGradient id="_Radial35" cx="0" cy="0" r="1" gradientUnits="userSpaceOnUse" gradientTransform="matrix(61.8133,0,0,61.8133,104.761,89.4928)"><stop offset="0" style="stop-color:rgb(0,192,243);stop-opacity:1"/><stop offset="1" style="stop-color:rgb(0,71,141);stop-opacity:1"/></radialGradient>
        <radialGradient id="_Radial36" cx="0" cy="0" r="1" gradientUnits="userSpaceOnUse" gradientTransform="matrix(61.8169,0,0,61.8169,104.762,89.485)"><stop offset="0" style="stop-color:rgb(0,192,243);stop-opacity:1"/><stop offset="1" style="stop-color:rgb(0,71,141);stop-opacity:1"/></radialGradient>
        <radialGradient id="_Radial37" cx="0" cy="0" r="1" gradientUnits="userSpaceOnUse" gradientTransform="matrix(61.8127,0,0,61.8127,104.762,89.4894)"><stop offset="0" style="stop-color:rgb(0,192,243);stop-opacity:1"/><stop offset="1" style="stop-color:rgb(0,71,141);stop-opacity:1"/></radialGradient>
        <radialGradient id="_Radial38" cx="0" cy="0" r="1" gradientUnits="userSpaceOnUse" gradientTransform="matrix(61.8052,0,0,61.8052,104.763,89.4918)"><stop offset="0" style="stop-color:rgb(0,192,243);stop-opacity:1"/><stop offset="1" style="stop-color:rgb(0,71,141);stop-opacity:1"/></radialGradient>
        <radialGradient id="_Radial39" cx="0" cy="0" r="1" gradientUnits="userSpaceOnUse" gradientTransform="matrix(61.8174,0,0,61.8174,104.764,89.4894)"><stop offset="0" style="stop-color:rgb(0,192,243);stop-opacity:1"/><stop offset="1" style="stop-color:rgb(0,71,141);stop-opacity:1"/></radialGradient>
        <radialGradient id="_Radial40" cx="0" cy="0" r="1" gradientUnits="userSpaceOnUse" gradientTransform="matrix(61.8118,0,0,61.8118,104.76,89.4909)"><stop offset="0" style="stop-color:rgb(0,192,243);stop-opacity:1"/><stop offset="1" style="stop-color:rgb(0,71,141);stop-opacity:1"/></radialGradient>
        <radialGradient id="_Radial41" cx="0" cy="0" r="1" gradientUnits="userSpaceOnUse" gradientTransform="matrix(61.8798,0,0,61.8798,104.764,89.4298)"><stop offset="0" style="stop-color:rgb(0,192,243);stop-opacity:1"/><stop offset="1" style="stop-color:rgb(0,71,141);stop-opacity:1"/></radialGradient>
    </defs>
</svg>
